<?xml version="1.0" encoding="UTF-8"?>
<svg version="1.1" xmlns="http://www.w3.org/2000/svg" width="48" height="48">
<path d="M0 0 C3.64475185 1.36350429 6.91244487 3.001464 10.25 5 C11.55710937 5.7734375 11.55710937 5.7734375 12.890625 6.5625 C15 8 15 8 16 10 C15.67 10.99 15.34 11.98 15 13 C15.23976562 13.62519531 15.47953125 14.25039063 15.7265625 14.89453125 C15.81679688 15.58933594 15.90703125 16.28414062 16 17 C14.0859375 19.26171875 14.0859375 19.26171875 11.375 21.6875 C7.87200083 24.97125722 5.36047828 27.71662066 3.3125 32.0625 C2.21875 34.27734375 2.21875 34.27734375 1 36 C-2.57144694 37.08959398 -4.6102474 37.6948763 -8 36 C-10.45393363 36.32046309 -10.45393363 36.32046309 -13.125 36.9375 C-14.49011719 37.22947266 -14.49011719 37.22947266 -15.8828125 37.52734375 C-16.58148438 37.68332031 -17.28015625 37.83929688 -18 38 C-18 38.99 -18 39.98 -18 41 C-20.64 41.33 -23.28 41.66 -26 42 C-26.67756882 40.44219668 -27.34159457 38.87849904 -28 37.3125 C-28.37125 36.44238281 -28.7425 35.57226562 -29.125 34.67578125 C-30.01870488 31.9427998 -30.16449676 29.85299066 -30 27 C-29.41992188 26.96003906 -28.83984375 26.92007812 -28.2421875 26.87890625 C-23.16022393 26.20228462 -23.16022393 26.20228462 -19.34765625 23.00390625 C-18.39347601 21.39422268 -17.45238545 19.77671958 -16.5234375 18.15234375 C-14.81598037 15.74001329 -13.78592236 15.19443585 -11.0625 14.1875 C-5.03759573 11.76128614 -2.77088522 5.50713437 0 0 Z " fill="#FCB64E" transform="translate(31,2)"/>
<path d="M0 0 C3.64475185 1.36350429 6.91244487 3.001464 10.25 5 C11.55710937 5.7734375 11.55710937 5.7734375 12.890625 6.5625 C15 8 15 8 16 10 C15.67 10.99 15.34 11.98 15 13 C15.35964844 13.93779297 15.35964844 13.93779297 15.7265625 14.89453125 C15.81679688 15.58933594 15.90703125 16.28414062 16 17 C14.0859375 19.26171875 14.0859375 19.26171875 11.375 21.6875 C7.87200083 24.97125722 5.36047828 27.71662066 3.3125 32.0625 C2.2265625 34.28125 2.2265625 34.28125 1 36 C-2.8125 37.0625 -2.8125 37.0625 -6 37 C-6.66 36.01 -7.32 35.02 -8 34 C-3.44044801 31.08695289 -3.44044801 31.08695289 -0.97558594 30.6003418 C2.5892188 29.51706759 3.96845581 25.87362234 5.75 22.8125 C6.16121094 22.15185547 6.57242188 21.49121094 6.99609375 20.81054688 C9.40226182 16.7616295 10.66920705 13.84275643 10 9 C8.52040427 6.95173938 8.52040427 6.95173938 6 6 C2.33285151 5.74936268 2.33285151 5.74936268 -1 6 C-1.25523438 6.69480469 -1.51046875 7.38960937 -1.7734375 8.10546875 C-3.14965828 11.35317449 -4.82539313 14.27982916 -6.625 17.3125 C-7.25664062 18.38113281 -7.88828125 19.44976563 -8.5390625 20.55078125 C-9.26222656 21.76314453 -9.26222656 21.76314453 -10 23 C-11 20 -11 20 -9.82421875 17.2734375 C-7.83959875 13.71217078 -5.85068665 10.15589116 -3.8125 6.625 C-3.44447266 5.98433594 -3.07644531 5.34367188 -2.69726562 4.68359375 C-1.79966689 3.12153881 -0.9000444 1.56064705 0 0 Z " fill="#408E42" transform="translate(31,2)"/>
<path d="M0 0 C1.81778151 2.77450862 1.53906611 4.51609518 1.1875 7.8125 C-0.07864955 10.76563021 -1.71744652 13.41677826 -3.4375 16.125 C-4.07751953 17.21651367 -4.07751953 17.21651367 -4.73046875 18.33007812 C-8.00572759 23.57538071 -8.00572759 23.57538071 -12.1484375 24.79296875 C-13.02757812 24.79941406 -13.90671875 24.80585937 -14.8125 24.8125 C-12.79647042 21.52711846 -11.23918206 19.1131169 -8.0625 16.875 C-5.40858881 14.90117185 -5.40858881 14.90117185 -5.4375 11.125 C-5.44613845 7.97116921 -5.44613845 7.97116921 -6.8125 6.8125 C-9.27059998 6.5624227 -9.27059998 6.5624227 -11.8125 6.8125 C-14.4980594 9.4980594 -14.87299974 12.18871328 -15.8125 15.8125 C-17.1325 16.1425 -18.4525 16.4725 -19.8125 16.8125 C-19.1140903 12.67416195 -17.03366228 9.23096742 -15 5.625 C-14.65646484 4.98369141 -14.31292969 4.34238281 -13.95898438 3.68164062 C-11.35535111 -0.94432692 -11.35535111 -0.94432692 -8.7109375 -2.12890625 C-5.37475519 -2.23187484 -2.81879255 -1.84679512 0 0 Z " fill="#9ACE9B" transform="translate(40.8125,9.1875)"/>
<path d="M0 0 C0.67220351 1.93558599 1.33758077 3.87354372 2 5.8125 C2.556875 7.43091797 2.556875 7.43091797 3.125 9.08203125 C4 12 4 12 4 15 C1.36 15.33 -1.28 15.66 -4 16 C-4.67756882 14.44219668 -5.34159457 12.87849904 -6 11.3125 C-6.37125 10.44238281 -6.7425 9.57226562 -7.125 8.67578125 C-8.01870488 5.9427998 -8.16449676 3.85299066 -8 1 C-5.10765685 0.17361624 -3.11257569 0 0 0 Z " fill="#7A86C8" transform="translate(9,28)"/>
<path d="M0 0 C2 2 2 2 2.125 5.625 C2.08375 6.73875 2.0425 7.8525 2 9 C1.01 9.33 0.02 9.66 -1 10 C-1.33 9.01 -1.66 8.02 -2 7 C-3.98 7.33 -5.96 7.66 -8 8 C-8.36075949 3.55063291 -8.36075949 3.55063291 -6.8125 1.1875 C-4.3864306 -0.40199375 -2.84602594 -0.36487512 0 0 Z " fill="#3D903F" transform="translate(34,15)"/>
<path d="M0 0 C0.66 1.32 1.32 2.64 2 4 C1.34 4 0.68 4 0 4 C-0.25523438 4.69480469 -0.51046875 5.38960937 -0.7734375 6.10546875 C-2.14965828 9.35317449 -3.82539313 12.27982916 -5.625 15.3125 C-6.25664062 16.38113281 -6.88828125 17.44976563 -7.5390625 18.55078125 C-8.26222656 19.76314453 -8.26222656 19.76314453 -9 21 C-10 18 -10 18 -8.79296875 15.2109375 C-6.99750996 11.99554072 -5.18127788 8.79839639 -3.3125 5.625 C-2.68988281 4.56539062 -2.06726563 3.50578125 -1.42578125 2.4140625 C-0.95527344 1.61742187 -0.48476563 0.82078125 0 0 Z " fill="#529F53" transform="translate(30,4)"/>
<path d="M0 0 C0.99 0.33 1.98 0.66 3 1 C2.43040847 4.62613199 1.07625466 6.25517741 -1.5625 8.75 C-2.52349609 9.67039062 -2.52349609 9.67039062 -3.50390625 10.609375 C-3.99761719 11.06828125 -4.49132813 11.5271875 -5 12 C-5 8.55639368 -4.20408468 7.25204608 -2.5 4.3125 C-2.0359375 3.50425781 -1.571875 2.69601563 -1.09375 1.86328125 C-0.7328125 1.24839844 -0.371875 0.63351562 0 0 Z " fill="#1B601F" transform="translate(44,15)"/>
<path d="M0 0 C3.0831351 1.19899698 6.06279492 2.47700477 9 4 C8.67 4.99 8.34 5.98 8 7 C3.545 6.01 3.545 6.01 -1 5 C-0.67 3.35 -0.34 1.7 0 0 Z " fill="#39933D" transform="translate(31,2)"/>
<path d="M0 0 C0.66 0.66 1.32 1.32 2 2 C1.625 4.125 1.625 4.125 1 6 C-0.32 6.33 -1.64 6.66 -3 7 C-2.38722388 4.03824877 -1.74627478 2.61941217 0 0 Z " fill="#A6D2A0" transform="translate(24,19)"/>
<path d="M0 0 C0.66 0.66 1.32 1.32 2 2 C0.68 4.64 -0.64 7.28 -2 10 C-2.66 9.01 -3.32 8.02 -4 7 C-2.68 4.69 -1.36 2.38 0 0 Z " fill="#4C9950" transform="translate(37,23)"/>
<path d="M0 0 C1.32 0.33 2.64 0.66 4 1 C3.67 2.65 3.34 4.3 3 6 C2.01 5.34 1.02 4.68 0 4 C0 2.68 0 1.36 0 0 Z " fill="#ECC476" transform="translate(29,21)"/>
</svg>
