<?xml version="1.0" encoding="UTF-8"?>
<svg version="1.1" xmlns="http://www.w3.org/2000/svg" width="2000" height="1254">
<path d="M0 0 C1.96245525 -0.0144751 3.92490844 -0.02923307 5.88735962 -0.04425049 C23.68409218 -0.173692 41.48141477 -0.24023675 59.2785244 -0.29209328 C72.42235305 -0.33110505 85.56533264 -0.39973549 98.70878828 -0.50664103 C107.96933084 -0.57942236 117.22964022 -0.61791432 126.49045718 -0.63111913 C132.01634627 -0.63998606 137.54117865 -0.66426105 143.06675339 -0.72578812 C148.25632162 -0.78293501 153.44428523 -0.79773565 158.63412094 -0.77991486 C160.5377265 -0.78079451 162.44139683 -0.79709871 164.34471893 -0.82995987 C178.74389638 -1.06568164 178.74389638 -1.06568164 182.8020134 2.22642803 C184.37437693 4.5373575 185.40775436 6.64329183 186.37353516 9.25634766 C186.94910156 10.22515869 187.52466797 11.19396973 188.11767578 12.19213867 C188.81666992 13.46335571 188.81666992 13.46335571 189.52978516 14.76025391 C190.06990234 15.73542969 190.61001953 16.71060547 191.16650391 17.71533203 C191.72982422 18.73949219 192.29314453 19.76365234 192.87353516 20.81884766 C197.60983645 29.35731832 202.42591985 37.83856869 207.37353516 46.25634766 C212.74595105 55.40521176 217.96430654 64.63038999 223.12353516 73.90087891 C227.12317968 81.0698846 231.2170156 88.17727528 235.37353516 95.25634766 C240.74550309 104.40548054 245.96430041 113.63037897 251.12353516 122.90087891 C255.12317968 130.0698846 259.2170156 137.17727528 263.37353516 144.25634766 C268.13782932 152.37053615 272.79776015 160.53438162 277.37353516 168.75634766 C282.53570553 178.03080433 287.82270466 187.22262657 293.19384766 196.37744141 C297.70547965 204.07850451 302.10794345 211.83656745 306.48144531 219.61669922 C310.35679367 226.49553044 314.31569627 233.32161567 318.31103516 240.13134766 C323.18003019 248.43237388 327.94054669 256.7865075 332.62353516 265.19384766 C336.82756656 272.74026821 341.0797271 280.246843 345.48706055 287.67626953 C349.22817013 293.98690101 352.89848174 300.33734613 356.56103516 306.69384766 C357.19904053 307.80107178 357.8370459 308.9082959 358.49438477 310.04907227 C359.80242992 312.31971833 361.11028964 314.59047123 362.41796875 316.86132812 C365.56685571 322.32804748 368.72039115 327.79208303 371.87353516 333.25634766 C373.11443457 335.40738125 374.35531994 337.55842294 375.59619141 339.70947266 C377.85176113 343.6192053 380.10785619 347.52863372 382.36471558 351.43762207 C383.36644909 353.17271493 384.36805705 354.90788022 385.36962891 356.64306641 C386.61287235 358.79685434 387.85634088 360.95051237 389.10009766 363.10400391 C392.27740162 368.60895077 395.44247509 374.12067958 398.59448242 379.64013672 C399.14290173 380.60018112 399.14290173 380.60018112 399.70240021 381.57962036 C400.59287009 383.13847716 401.48321571 384.69740493 402.37353516 386.25634766 C448.48804056 386.27938413 494.60254534 386.29693136 540.7170554 386.30741299 C546.19760074 386.30866326 551.67814608 386.30995762 557.15869141 386.3112793 C558.24948025 386.31154161 559.34026909 386.31180392 560.46411213 386.31207418 C577.98019933 386.31639084 595.49628314 386.32425563 613.01236835 386.33350045 C631.07025604 386.34294965 649.128142 386.34842671 667.18603206 386.35043615 C677.29310466 386.35166897 687.40017022 386.35459429 697.5072403 386.36207771 C750.19515283 386.41482706 750.19515283 386.41482706 802.88083029 385.98627365 C805.39597889 385.95461123 807.91118557 385.92719425 810.42643213 385.90461743 C846.91609488 385.55611619 879.24967643 376.17119351 907.37353516 352.25634766 C908.13150391 351.63244141 908.88947266 351.00853516 909.67041016 350.36572266 C915.69113037 345.25849103 920.58184227 339.515607 925.37353516 333.25634766 C925.96908203 332.48806641 926.56462891 331.71978516 927.17822266 330.92822266 C941.87485914 311.01665065 953.48140731 283.08914953 949.90478516 257.96337891 C947.32110693 243.86080194 941.31511926 232.03870478 929.73681641 223.25634766 C914.29705347 213.03659017 898.07569068 209.53825159 879.81976795 208.70136356 C878.90805119 208.65921998 877.99633444 208.61707639 877.0569899 208.57365573 C866.44994057 208.12287856 855.84854366 208.12057306 845.23381042 208.13609314 C842.97591954 208.13565596 840.71802871 208.13477835 838.46013814 208.13350397 C832.31652333 208.13128793 826.17292624 208.13524028 820.02931368 208.14028203 C814.06599079 208.14418067 808.10266901 208.14331925 802.1393453 208.14260019 C789.9568338 208.14129272 777.77432777 208.1446031 765.59181786 208.1506176 C753.54330607 208.15655059 741.49479657 208.16038676 729.44628334 208.16147041 C728.69494057 208.16153915 727.9435978 208.16160789 727.16948707 208.16167872 C723.35323082 208.16201709 719.53697456 208.16231846 715.7207183 208.16260559 C688.7453699 208.16470162 661.77002447 208.17142669 634.79467773 208.1809082 C608.60131852 208.19010418 582.40796012 208.19718213 556.21459961 208.20141602 C555.00183414 208.2016133 555.00183414 208.2016133 553.76456837 208.20181458 C545.64459423 208.20313319 537.52462008 208.20440899 529.40464593 208.20565344 C512.86581799 208.20818912 496.3269901 208.21101037 479.78816223 208.21400452 C479.02786484 208.21414181 478.26756744 208.2142791 477.48423073 208.21442055 C426.78066428 208.22360901 376.07709956 208.23947367 325.37353516 208.25634766 C326.81044306 205.2555773 328.20937496 203.19003019 330.60400391 200.86572266 C331.24273438 200.23794922 331.88146484 199.61017578 332.53955078 198.96337891 C333.20664063 198.31755859 333.87373047 197.67173828 334.56103516 197.00634766 C338.32033491 193.34804402 342.03380156 189.71614941 345.42431641 185.70947266 C351.95019579 178.12960428 359.30950656 171.26944493 366.41259766 164.23779297 C375.78227984 155.01191893 375.78227984 155.01191893 384.59228516 145.26025391 C389.43603054 139.81104035 394.78897262 134.79503828 399.97607422 129.67431641 C407.10159075 122.69335951 407.10159075 122.69335951 413.81103516 115.31884766 C419.48715357 108.66693165 425.90681034 102.67066956 432.12158203 96.52880859 C433.83270823 94.83596777 435.54066486 93.13997228 437.24853516 91.44384766 C438.01447998 90.69035034 438.01447998 90.69035034 438.79589844 89.92163086 C440.34231355 88.38548511 441.85674391 86.8217305 443.37353516 85.25634766 C443.86573736 84.77416842 444.35793957 84.29198917 444.86505699 83.79519844 C449.01942599 79.44143156 451.85235932 74.78679331 454.69863892 69.54074097 C470.33439544 41.20549787 493.75235931 12.92561202 525.37353516 2.25634766 C556.38590825 -6.5625424 590.96827803 -5.21002438 622.89697266 -5.17333984 C624.02675148 -5.17256837 625.1565303 -5.17179689 626.32054484 -5.17100203 C654.63841133 -5.13123475 682.92868381 -4.41980616 711.22799709 -3.4409149 C729.53218231 -2.8077886 747.83091422 -2.36169129 766.14404297 -2.08984375 C767.95825727 -2.06283167 767.95825727 -2.06283167 769.80912237 -2.03527389 C775.8841081 -1.94574874 781.95913196 -1.85915963 788.03417468 -1.77360129 C825.0530675 -1.24680048 862.06437131 -0.50399582 899.06962252 0.6366818 C901.93313804 0.72378966 904.79673958 0.80711695 907.66039848 0.88936234 C933.97679813 1.65296059 960.22265583 2.84823323 986.18603516 7.56884766 C987.3699585 7.77977051 988.55388184 7.99069336 989.77368164 8.20800781 C1034.11223378 16.34728009 1074.39061791 32.93516517 1107.37353516 64.25634766 C1107.87739746 64.73297852 1108.38125977 65.20960937 1108.90039062 65.70068359 C1142.31636702 97.52064309 1161.92686897 142.3964509 1163.48339844 188.51123047 C1165.03893357 280.19630101 1127.05189716 369.33351319 1064.37353516 441.25634766 C1063.17083984 442.62919922 1063.17083984 442.62919922 1061.94384766 444.02978516 C1056.10557881 450.53954818 1049.98457914 456.77163208 1043.8270874 462.97802734 C1042.41685657 464.4001606 1041.01060921 465.82624054 1039.60449219 467.25244141 C1034.30731387 472.55624948 1028.85491869 477.45115841 1022.99829102 482.12866211 C1020.51113242 484.14480825 1018.12605757 486.23352015 1015.75244141 488.38134766 C1011.44249263 492.24893192 1006.95059327 495.79393402 1002.31103516 499.25634766 C1001.46323486 499.89008301 1000.61543457 500.52381836 999.74194336 501.17675781 C984.56252794 512.39949265 968.75748544 522.87273254 952.37353516 532.25634766 C951.73448242 532.62856445 951.09542969 533.00078125 950.43701172 533.38427734 C886.01653988 570.83081308 811.45817363 591.36419663 736.92796326 591.41456604 C735.45723547 591.41914894 733.98650894 591.42415138 732.51578385 591.42952961 C728.52943999 591.44292379 724.54310449 591.45047367 720.55674422 591.45695627 C716.23729276 591.46504402 711.91785829 591.47871221 707.59841919 591.4916687 C700.13293942 591.51331408 692.66745783 591.53150149 685.20196342 591.54727364 C674.40839498 591.57008202 663.61484543 591.59820898 652.82129312 591.62759291 C635.30526825 591.67513526 617.7892356 591.71843518 600.27319336 591.7590332 C583.26797889 591.79845641 566.26277129 591.83989874 549.25756836 591.8840332 C548.20762522 591.88675748 547.15768208 591.88948175 546.07592248 591.89228857 C540.80814603 591.90596917 535.54036968 591.91968923 530.27259338 591.93342888 C486.63958836 592.04718356 443.00656842 592.15403886 399.37353516 592.25634766 C399.16039929 592.9076588 398.94726341 593.55896994 398.72766888 594.23001778 C396.69229606 600.44978417 394.65688028 606.66953649 392.62141944 612.88927407 C391.57565236 616.08481902 390.52990509 619.28037045 389.48418617 622.47593117 C383.78944569 639.87816322 378.09041553 657.27896968 372.38201904 674.67672729 C367.21309471 690.43052094 362.04558996 706.18475593 356.90478516 721.94775391 C356.37185349 723.5815802 356.37185349 723.5815802 355.82815552 725.24841309 C354.191918 730.2653946 352.55680132 735.28273631 350.92382812 740.30078125 C345.81402693 755.97842079 340.58836753 771.61185055 335.37353516 787.25634766 C269.04353516 787.25634766 202.71353516 787.25634766 134.37353516 787.25634766 C136.12188222 780.84574176 137.8239629 774.61759144 140.01806641 768.38134766 C140.52701985 766.91221951 141.03588618 765.44306118 141.54467773 763.97387695 C141.81083893 763.20941254 142.07700012 762.44494812 142.35122681 761.65731812 C147.28435077 747.4692893 152.06090201 733.23502248 156.68603516 718.94384766 C162.92734102 699.66612309 169.2443904 680.41398886 175.58000183 661.16710281 C183.09052252 638.35013228 190.59447036 615.53134368 198.00048828 592.68017578 C201.72869049 581.18446604 205.53731204 569.71644642 209.37353516 558.25634766 C208.56577637 559.00787109 207.75801758 559.75939453 206.92578125 560.53369141 C202.03792214 565.07247723 197.14133383 569.51732482 191.93603516 573.69384766 C187.15651594 577.53809405 182.68033171 581.6272381 178.20751953 585.81689453 C174.88216239 588.91400231 171.48642709 591.85249141 167.93603516 594.69384766 C163.56101544 598.20277905 159.45332607 601.91479271 155.37353516 605.75634766 C150.4639116 610.37927787 145.42875208 614.72235755 140.16259766 618.93994141 C135.73619353 622.61621262 131.56552403 626.56061138 127.35791016 630.48291016 C122.73999755 634.78740279 117.96591909 638.89947171 113.16259766 642.99462891 C106.61698084 648.57953699 100.15314009 654.22188726 93.80712891 660.03369141 C89.34864238 664.10572806 84.78855787 668.05476884 80.18994141 671.96728516 C73.34933082 677.79299096 66.62966956 683.71415701 60.02978516 689.81103516 C55.51054669 693.97139292 50.87174907 697.98320301 46.19384766 701.96337891 C40.43675004 706.86760283 34.72707391 711.79560981 29.18603516 716.94384766 C25.56070308 720.31218212 21.86121123 723.53556786 17.99853516 726.63134766 C12.26831029 731.24206405 6.94268437 736.23391404 1.58056641 741.26025391 C-3.09039805 745.6375148 -7.92394025 749.80777655 -12.79833984 753.95556641 C-13.99132799 754.97216522 -15.1840269 755.98910353 -16.37646484 757.00634766 C-16.98014893 757.52116699 -17.58383301 758.03598633 -18.20581055 758.56640625 C-22.15140331 761.94744094 -26.0059717 765.40910459 -29.81396484 768.94384766 C-33.58532183 772.40968967 -37.36461979 775.85759356 -41.25146484 779.19384766 C-42.04810547 779.88349609 -42.84474609 780.57314453 -43.66552734 781.28369141 C-53.7037551 787.9714289 -63.62773644 787.81406434 -75.2722168 787.72631836 C-77.15405397 787.7268278 -79.03589135 787.72908765 -80.91772461 787.73295593 C-86.00683012 787.73835608 -91.09556887 787.71901198 -96.1846087 787.69485497 C-101.52631475 787.67347888 -106.86802055 787.67415021 -112.20976257 787.67216492 C-121.18165346 787.66572521 -130.15340764 787.64451267 -139.12524414 787.61303711 C-150.61172278 787.57279041 -162.0981123 787.55535142 -173.5846529 787.54572773 C-183.49308724 787.53739778 -193.40150303 787.52017115 -203.30992103 787.50069022 C-205.42839496 787.49665203 -207.54686949 787.49291085 -209.66534448 787.48946786 C-215.71143132 787.47962145 -221.75746615 787.4650108 -227.8035202 787.44262886 C-229.62831593 787.43655762 -231.45311783 787.43207943 -233.27792168 787.42938614 C-243.11419659 787.41351876 -252.8283123 787.2139426 -262.62646484 786.25634766 C-258.33522192 780.99957507 -253.80695064 776.62146287 -248.62646484 772.25634766 C-246.35235631 770.32267453 -244.08268491 768.38383856 -241.81396484 766.44384766 C-241.21052246 765.92838379 -240.60708008 765.41291992 -239.98535156 764.88183594 C-235.26149368 760.83335693 -230.64821502 756.68092946 -226.06005859 752.47900391 C-221.58939984 748.39585009 -217.01504595 744.43792387 -212.40771484 740.51025391 C-211.20965709 739.48828386 -210.01174474 738.46614334 -208.81396484 737.44384766 C-207.90493408 736.66811401 -207.90493408 736.66811401 -206.97753906 735.87670898 C-203.23614223 732.67158236 -199.56548007 729.40441037 -195.93896484 726.06884766 C-192.48630788 722.89804024 -188.97115518 719.87599734 -185.31396484 716.94384766 C-180.2572977 712.86821722 -175.54298181 708.50271806 -170.81860352 704.05395508 C-166.52537883 700.03305524 -162.06409275 696.30644998 -157.47021484 692.63134766 C-154.07011412 689.7917031 -150.8506004 686.79246667 -147.62646484 683.75634766 C-142.7354704 679.1505732 -137.71879396 674.83021095 -132.47021484 670.63134766 C-129.07011412 667.7917031 -125.8506004 664.79246667 -122.62646484 661.75634766 C-117.7354704 657.1505732 -112.71879396 652.83021095 -107.47021484 648.63134766 C-104.07011412 645.7917031 -100.8506004 642.79246667 -97.62646484 639.75634766 C-92.7354704 635.1505732 -87.71879396 630.83021095 -82.47021484 626.63134766 C-79.07011412 623.7917031 -75.8506004 620.79246667 -72.62646484 617.75634766 C-67.7354704 613.1505732 -62.71879396 608.83021095 -57.47021484 604.63134766 C-54.07011412 601.7917031 -50.8506004 598.79246667 -47.62646484 595.75634766 C-42.7354704 591.1505732 -37.71879396 586.83021095 -32.47021484 582.63134766 C-29.07011412 579.7917031 -25.8506004 576.79246667 -22.62646484 573.75634766 C-17.7354704 569.1505732 -12.71879396 564.83021095 -7.47021484 560.63134766 C-4.07011412 557.7917031 -0.8506004 554.79246667 2.37353516 551.75634766 C7.2645296 547.1505732 12.28120604 542.83021095 17.52978516 538.63134766 C20.92988588 535.7917031 24.1493996 532.79246667 27.37353516 529.75634766 C32.2645296 525.1505732 37.28120604 520.83021095 42.52978516 516.63134766 C45.92988588 513.7917031 49.1493996 510.79246667 52.37353516 507.75634766 C57.2645296 503.1505732 62.28120604 498.83021095 67.52978516 494.63134766 C70.92988588 491.7917031 74.1493996 488.79246667 77.37353516 485.75634766 C82.2645296 481.1505732 87.28120604 476.83021095 92.52978516 472.63134766 C95.92988588 469.7917031 99.1493996 466.79246667 102.37353516 463.75634766 C107.2645296 459.1505732 112.28120604 454.83021095 117.52978516 450.63134766 C120.92988588 447.7917031 124.1493996 444.79246667 127.37353516 441.75634766 C132.2645296 437.1505732 137.28120604 432.83021095 142.52978516 428.63134766 C145.92988701 425.79170215 149.14938615 422.79245395 152.37353516 419.75634766 C157.28047512 415.13590561 162.31179126 410.79401918 167.57666016 406.58056641 C171.44708114 403.36422495 175.11820026 399.95033362 178.78393555 396.50415039 C182.21402082 393.28631349 185.73472785 390.23701493 189.37353516 387.25634766 C185.37477443 378.60149567 180.61984541 370.47213999 175.7434082 362.29199219 C171.43526896 355.06384513 167.1959889 347.79931399 162.99853516 340.50634766 C162.37205078 339.41805664 161.74556641 338.32976562 161.10009766 337.20849609 C159.82525092 334.9931566 158.55067468 332.77766144 157.27636719 330.56201172 C155.40434095 327.30986452 153.5284048 324.06000995 151.65087891 320.81103516 C144.85718183 309.05388195 138.0933717 297.28019053 131.36355591 285.48638916 C126.55654478 277.06303709 121.72590611 268.65367531 116.87353516 260.25634766 C109.67129711 247.79038957 102.52523805 235.2927346 95.38964844 222.78857422 C92.3862034 217.52586845 89.37923551 212.2651758 86.37252808 207.0043335 C84.70605234 204.08842094 83.03980534 201.17237768 81.37353516 198.25634766 C80.70686959 197.08968036 80.04020292 195.9230137 79.37353516 194.75634766 C78.04020182 192.42301432 76.70686849 190.08968099 75.37353516 187.75634766 C74.87854271 186.89011276 74.87854271 186.89011276 74.37355042 186.00637817 C73.7068285 184.83961229 73.04011098 183.67284389 72.37339783 182.506073 C70.70761231 179.59090388 69.04175088 176.67577819 67.37573242 173.76074219 C64.36513202 168.49291571 61.35509369 163.22477207 58.34786987 157.95501709 C50.93676184 144.96815872 43.50225076 131.99538982 36.02001953 119.04931641 C31.76562441 111.68336472 27.53967795 104.30154627 23.3263855 96.91204834 C17.46947128 86.64031185 11.56335104 76.39911776 5.59204102 66.19335938 C0.69421593 57.81950166 -4.15494303 49.41816799 -8.99487305 41.01074219 C-12.17313648 35.49421167 -15.36394922 29.98556365 -18.57958984 24.49072266 C-19.21703125 23.40146484 -19.85447266 22.31220703 -20.51123047 21.18994141 C-21.72174588 19.1238261 -22.93388982 17.05866374 -24.14794922 14.99462891 C-26.79446511 10.47832604 -29.37418144 5.98297057 -31.62646484 1.25634766 C-21.08845747 0.11412019 -10.58516003 0.06051834 0 0 Z " fill="#7C559E" transform="translate(835.62646484375,-0.25634765625)"/>
<path d="M0 0 C69.96 0 139.92 0 212 0 C228.4921875 28.86132813 228.4921875 28.86132813 234.33203125 39.09375 C240.03085336 49.07633681 245.74971592 59.04694588 251.5 69 C258.70212794 81.46602223 265.84829676 93.96361244 272.98388672 106.46777344 C275.98733176 111.7304792 278.99429965 116.99117186 282.00100708 122.25201416 C283.66748282 125.16792672 285.33372982 128.08396998 287 131 C287.66666557 132.16666729 288.33333224 133.33333396 289 134.5 C290.33333333 136.83333333 291.66666667 139.16666667 293 141.5 C293.32999496 142.07748993 293.65998993 142.65497986 293.99998474 143.24996948 C294.66670665 144.41673537 295.33342418 145.58350376 296.00013733 146.75027466 C297.66592284 149.66544378 299.33178427 152.58056947 300.99780273 155.49560547 C304.00840313 160.76343195 307.01844147 166.03157559 310.02566528 171.30133057 C317.43758501 184.28961131 324.87369882 197.26333829 332.35571289 210.21142578 C337.26708329 218.71605799 342.14305806 227.24056478 347.01025391 235.77050781 C351.8171789 244.19367294 356.64765707 252.60289286 361.5 261 C366.69232593 269.98545666 371.8565123 278.98653761 377 288 C387.4528598 306.3138609 397.9895765 324.57776679 408.63647461 342.77954102 C414.07377602 352.09237397 419.42340921 361.45463125 424.75952148 370.82568359 C425.39962158 371.9492627 426.03972168 373.0728418 426.69921875 374.23046875 C427.26471436 375.22457764 427.83020996 376.21868652 428.4128418 377.24291992 C429.47760599 379.0925403 430.57905988 380.92148274 431.71459961 382.72851562 C433 385 433 385 432.8671875 387.11328125 C429.89853394 393.5721086 422.46836275 398.09058907 417.08984375 402.4140625 C413.58608555 405.29283826 410.29894569 408.39106712 407 411.5 C402.09059636 416.12315459 397.05519626 420.46602645 391.7890625 424.68359375 C387.36265837 428.35986497 383.19198888 432.30426372 378.984375 436.2265625 C374.36646239 440.53105514 369.59238393 444.64312405 364.7890625 448.73828125 C358.24344569 454.32318933 351.77960493 459.96553961 345.43359375 465.77734375 C340.97510722 469.8493804 336.41502272 473.79842118 331.81640625 477.7109375 C326.06028355 482.61349982 320.35223355 487.54053928 314.8125 492.6875 C311.16586624 496.07524373 307.44382599 499.31897796 303.5625 502.4375 C298.14091657 506.80140459 293.07157883 511.4842153 287.984375 516.2265625 C283.37851774 520.51981799 278.6189993 524.62329422 273.82421875 528.703125 C272.63254314 529.71843394 271.4411459 530.73406967 270.25 531.75 C269.34459473 532.52210815 269.34459473 532.52210815 268.42089844 533.30981445 C264.47534047 536.69089459 260.61891344 540.15096521 256.8125 543.6875 C253.16586624 547.07524373 249.44382599 550.31897796 245.5625 553.4375 C240.14091657 557.80140459 235.07157883 562.4842153 229.984375 567.2265625 C225.37851774 571.51981799 220.6189993 575.62329422 215.82421875 579.703125 C214.63254314 580.71843394 213.4411459 581.73406967 212.25 582.75 C211.34459473 583.52210815 211.34459473 583.52210815 210.42089844 584.30981445 C206.47534169 587.69089354 202.61889068 591.15094207 198.8125 594.6875 C195.18716792 598.05583447 191.48767607 601.2792202 187.625 604.375 C182.58583594 608.42666217 177.89534229 612.77354616 173.19189453 617.20263672 C168.898737 621.22343643 164.43753649 624.94997081 159.84375 628.625 C156.44364928 631.46464456 153.22413555 634.46388099 150 637.5 C145.10900556 642.10577446 140.09232912 646.4261367 134.84375 650.625 C131.44364928 653.46464456 128.22413555 656.46388099 125 659.5 C120.10900556 664.10577446 115.09232912 668.4261367 109.84375 672.625 C106.44364928 675.46464456 103.22413555 678.46388099 100 681.5 C95.94123272 685.32207891 91.85703191 689.01437447 87.5 692.5 C81.80368295 697.06041926 76.52680934 702.01734663 71.20703125 707.00390625 C66.5360668 711.38116714 61.70252459 715.5514289 56.828125 719.69921875 C55.63513685 720.71581756 54.44243795 721.73275588 53.25 722.75 C52.64631592 723.26481934 52.04263184 723.77963867 51.4206543 724.31005859 C47.47514717 727.6910199 43.61880634 731.15102043 39.8125 734.6875 C36.18716792 738.05583447 32.48767607 741.2792202 28.625 744.375 C24.23193511 747.90717609 20.10082942 751.6389592 16 755.5 C11.07068804 760.14107931 6.02166813 764.51313059 0.7265625 768.73828125 C-3.38301308 772.14722719 -7.22192262 775.8284425 -11.078125 779.51953125 C-18.47632988 785.80009288 -24.85392729 787.1556685 -34.42182922 787.12025452 C-35.26731313 787.12110894 -36.11279704 787.12196337 -36.98390168 787.12284368 C-39.81521712 787.12448999 -42.64647323 787.11899098 -45.4777832 787.11352539 C-47.50805154 787.11324331 -49.53831998 787.11340166 -51.56858826 787.1139679 C-57.080522 787.11425505 -62.59243403 787.10837143 -68.10436273 787.10139394 C-73.86459255 787.09514689 -79.62482286 787.09455553 -85.38505554 787.09336853 C-96.29301176 787.09025921 -107.20095797 787.08205118 -118.10890979 787.07201904 C-130.52716781 787.06084554 -142.94542631 787.05534433 -155.36368811 787.05032361 C-180.90913096 787.03986825 -206.45456492 787.02227651 -232 787 C-232 785 -232 785 -230.7421875 783.6953125 C-230.12601562 783.17710937 -229.50984375 782.65890625 -228.875 782.125 C-227.78058594 781.19300781 -227.78058594 781.19300781 -226.6640625 780.2421875 C-225.78492188 779.50226562 -224.90578125 778.76234375 -224 778 C-221.74622286 776.08774701 -219.49727926 774.16988344 -217.25 772.25 C-216.64961914 771.73751709 -216.04923828 771.22503418 -215.43066406 770.69702148 C-210.40373813 766.38736515 -205.51937916 761.93780116 -200.65625 757.4453125 C-196.13701153 753.28495473 -191.49821391 749.27314465 -186.8203125 745.29296875 C-179.97880293 739.4655094 -173.25747892 733.54343269 -166.65625 727.4453125 C-162.13701153 723.28495473 -157.49821391 719.27314465 -152.8203125 715.29296875 C-145.97880293 709.4655094 -139.25747892 703.54343269 -132.65625 697.4453125 C-128.13701153 693.28495473 -123.49821391 689.27314465 -118.8203125 685.29296875 C-113.06321488 680.38874482 -107.35353876 675.46073785 -101.8125 670.3125 C-98.18716792 666.94416553 -94.48767607 663.7207798 -90.625 660.625 C-85.58583594 656.57333783 -80.89534229 652.22645384 -76.19189453 647.79736328 C-71.898737 643.77656357 -67.43753649 640.05002919 -62.84375 636.375 C-59.44364928 633.53535544 -56.22413555 630.53611901 -53 627.5 C-48.10900556 622.89422554 -43.09232912 618.5738633 -37.84375 614.375 C-34.44364928 611.53535544 -31.22413555 608.53611901 -28 605.5 C-23.10900556 600.89422554 -18.09232912 596.5738633 -12.84375 592.375 C-9.44364928 589.53535544 -6.22413555 586.53611901 -3 583.5 C1.89099444 578.89422554 6.90767088 574.5738633 12.15625 570.375 C15.55635072 567.53535544 18.77586445 564.53611901 22 561.5 C26.89099444 556.89422554 31.90767088 552.5738633 37.15625 548.375 C40.55635072 545.53535544 43.77586445 542.53611901 47 539.5 C51.89099444 534.89422554 56.90767088 530.5738633 62.15625 526.375 C65.55635072 523.53535544 68.77586445 520.53611901 72 517.5 C76.89099444 512.89422554 81.90767088 508.5738633 87.15625 504.375 C90.55635072 501.53535544 93.77586445 498.53611901 97 495.5 C101.89099444 490.89422554 106.90767088 486.5738633 112.15625 482.375 C115.55635072 479.53535544 118.77586445 476.53611901 122 473.5 C126.89099444 468.89422554 131.90767088 464.5738633 137.15625 460.375 C140.55635072 457.53535544 143.77586445 454.53611901 147 451.5 C151.89099444 446.89422554 156.90767088 442.5738633 162.15625 438.375 C165.55635072 435.53535544 168.77586445 432.53611901 172 429.5 C176.89099444 424.89422554 181.90767088 420.5738633 187.15625 416.375 C191.18333126 413.01172334 194.97131093 409.41156945 198.78881836 405.81445312 C203.23214064 401.651252 207.81541411 397.77273956 212.59765625 394 C215.2288316 391.80949304 217.61236309 389.45147747 220 387 C218.59212373 383.23925218 216.87068945 379.84901808 214.8671875 376.37109375 C214.23417725 375.26813965 213.60116699 374.16518555 212.94897461 373.02880859 C212.25768746 371.83168395 211.56636151 370.6345817 210.875 369.4375 C210.1553417 368.18590429 209.43602802 366.93411037 208.71704102 365.68212891 C207.22264909 363.08047011 205.7267756 360.47967136 204.22998047 357.87939453 C202.11561111 354.20395836 200.01089372 350.5230851 197.91015625 346.83984375 C197.58088135 346.26256027 197.25160645 345.68527679 196.91235352 345.09049988 C196.58436768 344.51544205 196.25638184 343.94038422 195.91845703 343.34790039 C189.52756436 332.14375346 183.10089357 320.96066096 176.64648438 309.79296875 C172.05034047 301.8353219 167.48925053 293.85807015 162.9375 285.875 C158.00403214 277.22304049 153.03171489 268.59527875 148 260 C140.92295072 247.90848817 133.97346 235.74544885 127.03662109 223.57324219 C123.67347949 217.67198311 120.30621933 211.7730765 116.9375 205.875 C116.60606995 205.29463989 116.27463989 204.71427979 115.9331665 204.11633301 C111.14392337 195.73158738 106.33051209 187.3610388 101.5 179 C94.29787206 166.53397777 87.15170324 154.03638756 80.01611328 141.53222656 C77.01250497 136.26923472 74.00533424 131.00827884 70.9984436 125.74716187 C70.00032675 124.00057178 69.00244656 122.25384669 68.00463867 120.50708008 C64.9886517 115.22756992 61.97147877 109.94875362 58.94873047 104.67311096 C51.5715341 91.79737148 44.24047861 78.89813323 37.00732422 65.94067383 C33.37512306 59.43889896 29.70548633 52.96026341 26 46.5 C21.49836694 38.64907305 17.04741286 30.77083015 12.625 22.875 C12.05394531 21.85599609 11.48289062 20.83699219 10.89453125 19.78710938 C7.21847497 13.21411413 3.60692383 6.6126937 0 0 Z " fill="#F48270" transform="translate(503,0)"/>
<path d="M0 0 C1.96245525 -0.0144751 3.92490844 -0.02923307 5.88735962 -0.04425049 C23.68409218 -0.173692 41.48141477 -0.24023675 59.2785244 -0.29209328 C72.42235305 -0.33110505 85.56533264 -0.39973549 98.70878828 -0.50664103 C107.96933084 -0.57942236 117.22964022 -0.61791432 126.49045718 -0.63111913 C132.01634627 -0.63998606 137.54117865 -0.66426105 143.06675339 -0.72578812 C148.25632162 -0.78293501 153.44428523 -0.79773565 158.63412094 -0.77991486 C160.5377265 -0.78079451 162.44139683 -0.79709871 164.34471893 -0.82995987 C178.74389638 -1.06568164 178.74389638 -1.06568164 182.8020134 2.22642803 C184.37437693 4.5373575 185.40775436 6.64329183 186.37353516 9.25634766 C186.94910156 10.22515869 187.52466797 11.19396973 188.11767578 12.19213867 C188.81666992 13.46335571 188.81666992 13.46335571 189.52978516 14.76025391 C190.06990234 15.73542969 190.61001953 16.71060547 191.16650391 17.71533203 C191.72982422 18.73949219 192.29314453 19.76365234 192.87353516 20.81884766 C197.60983645 29.35731832 202.42591985 37.83856869 207.37353516 46.25634766 C212.74595105 55.40521176 217.96430654 64.63038999 223.12353516 73.90087891 C227.12317968 81.0698846 231.2170156 88.17727528 235.37353516 95.25634766 C240.74550309 104.40548054 245.96430041 113.63037897 251.12353516 122.90087891 C255.12317968 130.0698846 259.2170156 137.17727528 263.37353516 144.25634766 C268.13782932 152.37053615 272.79776015 160.53438162 277.37353516 168.75634766 C282.53570553 178.03080433 287.82270466 187.22262657 293.19384766 196.37744141 C297.70547965 204.07850451 302.10794345 211.83656745 306.48144531 219.61669922 C310.35679367 226.49553044 314.31569627 233.32161567 318.31103516 240.13134766 C323.18003019 248.43237388 327.94054669 256.7865075 332.62353516 265.19384766 C336.82756656 272.74026821 341.0797271 280.246843 345.48706055 287.67626953 C349.22817013 293.98690101 352.89848174 300.33734613 356.56103516 306.69384766 C357.19904053 307.80107178 357.8370459 308.9082959 358.49438477 310.04907227 C359.80242992 312.31971833 361.11028964 314.59047123 362.41796875 316.86132812 C365.56685571 322.32804748 368.72039115 327.79208303 371.87353516 333.25634766 C373.11443457 335.40738125 374.35531994 337.55842294 375.59619141 339.70947266 C377.8520127 343.61964137 380.10836894 347.52950031 382.36546326 351.43893433 C395.92450628 374.92418828 395.92450628 374.92418828 402.37353516 386.25634766 C398.52853288 390.15203735 394.57659644 393.91216786 390.56103516 397.63134766 C389.93648437 398.21005615 389.31193359 398.78876465 388.66845703 399.38500977 C383.27999042 404.36485566 377.78935358 409.20081095 372.20166016 413.95556641 C371.00867201 414.97216522 369.8159731 415.98910353 368.62353516 417.00634766 C368.01985107 417.52116699 367.41616699 418.03598633 366.79418945 418.56640625 C362.84868233 421.94736755 358.9923415 425.40736808 355.18603516 428.94384766 C351.56070308 432.31218212 347.86121123 435.53556786 343.99853516 438.63134766 C338.9593711 442.68300982 334.26887745 447.02989382 329.56542969 451.45898438 C325.27227215 455.47978409 320.81107165 459.20631846 316.21728516 462.88134766 C312.81718444 465.72099221 309.59767071 468.72022865 306.37353516 471.75634766 C301.48254072 476.36212212 296.46586428 480.68248436 291.21728516 484.88134766 C287.81718444 487.72099221 284.59767071 490.72022865 281.37353516 493.75634766 C277.31476787 497.57842657 273.23056707 501.27072213 268.87353516 504.75634766 C263.18217872 509.3127955 257.90941233 514.26426986 252.59619141 519.24853516 C249.55216503 522.10181544 246.44386638 524.86822775 243.28369141 527.59228516 C241.01149005 529.57174892 238.78893643 531.60217936 236.56103516 533.63134766 C232.14974164 537.6157418 227.5918046 541.38385372 222.97900391 545.13134766 C215.75423892 551.00619649 215.75423892 551.00619649 209.37353516 557.75634766 C206.07731106 561.72759636 202.31293986 564.93697644 198.37353516 568.25634766 C196.09942652 570.19002087 193.82984053 572.12895646 191.56103516 574.06884766 C190.95541748 574.58576172 190.3497998 575.10267578 189.72583008 575.63525391 C185.98375459 578.84032083 182.31289782 582.10796537 178.68603516 585.44384766 C175.23337819 588.61465507 171.71822549 591.63669797 168.06103516 594.56884766 C163.00516949 598.64383211 158.29166292 603.00866759 153.56787109 607.45654297 C149.25508102 611.4955051 144.77533005 615.24567343 140.16259766 618.93994141 C135.73619353 622.61621262 131.56552403 626.56061138 127.35791016 630.48291016 C122.73999755 634.78740279 117.96591909 638.89947171 113.16259766 642.99462891 C106.61698084 648.57953699 100.15314009 654.22188726 93.80712891 660.03369141 C89.34864238 664.10572806 84.78855787 668.05476884 80.18994141 671.96728516 C73.34933082 677.79299096 66.62966956 683.71415701 60.02978516 689.81103516 C55.51054669 693.97139292 50.87174907 697.98320301 46.19384766 701.96337891 C40.43675004 706.86760283 34.72707391 711.79560981 29.18603516 716.94384766 C25.56070308 720.31218212 21.86121123 723.53556786 17.99853516 726.63134766 C12.26831029 731.24206405 6.94268437 736.23391404 1.58056641 741.26025391 C-3.09039805 745.6375148 -7.92394025 749.80777655 -12.79833984 753.95556641 C-13.99132799 754.97216522 -15.1840269 755.98910353 -16.37646484 757.00634766 C-16.98014893 757.52116699 -17.58383301 758.03598633 -18.20581055 758.56640625 C-22.15140331 761.94744094 -26.0059717 765.40910459 -29.81396484 768.94384766 C-33.58532183 772.40968967 -37.36461979 775.85759356 -41.25146484 779.19384766 C-42.04810547 779.88349609 -42.84474609 780.57314453 -43.66552734 781.28369141 C-53.7037551 787.9714289 -63.62773644 787.81406434 -75.2722168 787.72631836 C-77.15405397 787.7268278 -79.03589135 787.72908765 -80.91772461 787.73295593 C-86.00683012 787.73835608 -91.09556887 787.71901198 -96.1846087 787.69485497 C-101.52631475 787.67347888 -106.86802055 787.67415021 -112.20976257 787.67216492 C-121.18165346 787.66572521 -130.15340764 787.64451267 -139.12524414 787.61303711 C-150.61172278 787.57279041 -162.0981123 787.55535142 -173.5846529 787.54572773 C-183.49308724 787.53739778 -193.40150303 787.52017115 -203.30992103 787.50069022 C-205.42839496 787.49665203 -207.54686949 787.49291085 -209.66534448 787.48946786 C-215.71143132 787.47962145 -221.75746615 787.4650108 -227.8035202 787.44262886 C-229.62831593 787.43655762 -231.45311783 787.43207943 -233.27792168 787.42938614 C-243.11419659 787.41351876 -252.8283123 787.2139426 -262.62646484 786.25634766 C-258.33522192 780.99957507 -253.80695064 776.62146287 -248.62646484 772.25634766 C-246.35235631 770.32267453 -244.08268491 768.38383856 -241.81396484 766.44384766 C-241.21052246 765.92838379 -240.60708008 765.41291992 -239.98535156 764.88183594 C-235.26149368 760.83335693 -230.64821502 756.68092946 -226.06005859 752.47900391 C-221.58939984 748.39585009 -217.01504595 744.43792387 -212.40771484 740.51025391 C-211.20965709 739.48828386 -210.01174474 738.46614334 -208.81396484 737.44384766 C-207.90493408 736.66811401 -207.90493408 736.66811401 -206.97753906 735.87670898 C-203.23614223 732.67158236 -199.56548007 729.40441037 -195.93896484 726.06884766 C-192.48630788 722.89804024 -188.97115518 719.87599734 -185.31396484 716.94384766 C-180.2572977 712.86821722 -175.54298181 708.50271806 -170.81860352 704.05395508 C-166.52537883 700.03305524 -162.06409275 696.30644998 -157.47021484 692.63134766 C-154.07011412 689.7917031 -150.8506004 686.79246667 -147.62646484 683.75634766 C-142.7354704 679.1505732 -137.71879396 674.83021095 -132.47021484 670.63134766 C-129.07011412 667.7917031 -125.8506004 664.79246667 -122.62646484 661.75634766 C-117.7354704 657.1505732 -112.71879396 652.83021095 -107.47021484 648.63134766 C-104.07011412 645.7917031 -100.8506004 642.79246667 -97.62646484 639.75634766 C-92.7354704 635.1505732 -87.71879396 630.83021095 -82.47021484 626.63134766 C-79.07011412 623.7917031 -75.8506004 620.79246667 -72.62646484 617.75634766 C-67.7354704 613.1505732 -62.71879396 608.83021095 -57.47021484 604.63134766 C-54.07011412 601.7917031 -50.8506004 598.79246667 -47.62646484 595.75634766 C-42.7354704 591.1505732 -37.71879396 586.83021095 -32.47021484 582.63134766 C-29.07011412 579.7917031 -25.8506004 576.79246667 -22.62646484 573.75634766 C-17.7354704 569.1505732 -12.71879396 564.83021095 -7.47021484 560.63134766 C-4.07011412 557.7917031 -0.8506004 554.79246667 2.37353516 551.75634766 C7.2645296 547.1505732 12.28120604 542.83021095 17.52978516 538.63134766 C20.92988588 535.7917031 24.1493996 532.79246667 27.37353516 529.75634766 C32.2645296 525.1505732 37.28120604 520.83021095 42.52978516 516.63134766 C45.92988588 513.7917031 49.1493996 510.79246667 52.37353516 507.75634766 C57.2645296 503.1505732 62.28120604 498.83021095 67.52978516 494.63134766 C70.92988588 491.7917031 74.1493996 488.79246667 77.37353516 485.75634766 C82.2645296 481.1505732 87.28120604 476.83021095 92.52978516 472.63134766 C95.92988588 469.7917031 99.1493996 466.79246667 102.37353516 463.75634766 C107.2645296 459.1505732 112.28120604 454.83021095 117.52978516 450.63134766 C120.92988588 447.7917031 124.1493996 444.79246667 127.37353516 441.75634766 C132.2645296 437.1505732 137.28120604 432.83021095 142.52978516 428.63134766 C145.92988701 425.79170215 149.14938615 422.79245395 152.37353516 419.75634766 C157.28047512 415.13590561 162.31179126 410.79401918 167.57666016 406.58056641 C171.44708114 403.36422495 175.11820026 399.95033362 178.78393555 396.50415039 C182.21402082 393.28631349 185.73472785 390.23701493 189.37353516 387.25634766 C185.37477443 378.60149567 180.61984541 370.47213999 175.7434082 362.29199219 C171.43526896 355.06384513 167.1959889 347.79931399 162.99853516 340.50634766 C162.37205078 339.41805664 161.74556641 338.32976562 161.10009766 337.20849609 C159.82525092 334.9931566 158.55067468 332.77766144 157.27636719 330.56201172 C155.40434095 327.30986452 153.5284048 324.06000995 151.65087891 320.81103516 C144.85718183 309.05388195 138.0933717 297.28019053 131.36355591 285.48638916 C126.55654478 277.06303709 121.72590611 268.65367531 116.87353516 260.25634766 C109.67129711 247.79038957 102.52523805 235.2927346 95.38964844 222.78857422 C92.3862034 217.52586845 89.37923551 212.2651758 86.37252808 207.0043335 C84.70605234 204.08842094 83.03980534 201.17237768 81.37353516 198.25634766 C80.70686959 197.08968036 80.04020292 195.9230137 79.37353516 194.75634766 C78.04020182 192.42301432 76.70686849 190.08968099 75.37353516 187.75634766 C74.87854271 186.89011276 74.87854271 186.89011276 74.37355042 186.00637817 C73.7068285 184.83961229 73.04011098 183.67284389 72.37339783 182.506073 C70.70761231 179.59090388 69.04175088 176.67577819 67.37573242 173.76074219 C64.36513202 168.49291571 61.35509369 163.22477207 58.34786987 157.95501709 C50.93676184 144.96815872 43.50225076 131.99538982 36.02001953 119.04931641 C31.76562441 111.68336472 27.53967795 104.30154627 23.3263855 96.91204834 C17.46947128 86.64031185 11.56335104 76.39911776 5.59204102 66.19335938 C0.69421593 57.81950166 -4.15494303 49.41816799 -8.99487305 41.01074219 C-12.17313648 35.49421167 -15.36394922 29.98556365 -18.57958984 24.49072266 C-19.21703125 23.40146484 -19.85447266 22.31220703 -20.51123047 21.18994141 C-21.72174588 19.1238261 -22.93388982 17.05866374 -24.14794922 14.99462891 C-26.79446511 10.47832604 -29.37418144 5.98297057 -31.62646484 1.25634766 C-21.08845747 0.11412019 -10.58516003 0.06051834 0 0 Z " fill="#EF6722" transform="translate(835.62646484375,-0.25634765625)"/>
<path d="M0 0 C4.89661261 0.00633815 9.79322614 0.00684548 14.68984222 0.00802541 C23.92199143 0.01110836 33.15412851 0.01927994 42.38627243 0.0293749 C52.9138338 0.04063145 63.44139581 0.0460703 73.96896172 0.05107033 C95.5876799 0.06146581 117.20638725 0.07900516 138.82509613 0.10139394 C136.82979307 7.7280962 134.54672122 15.21219374 132.03481293 22.68342519 C131.66672012 23.78638936 131.29862732 24.88935353 130.91938019 26.02574086 C129.70712155 29.65605517 128.49066987 33.28495032 127.27431488 36.91389394 C126.41464784 39.48536169 125.55599895 42.05716903 124.69736481 44.62898183 C122.43187196 51.41281842 120.1626743 58.19541131 117.89266205 64.97773671 C114.08980732 76.34003561 110.29090639 87.70365738 106.49501753 99.06828523 C106.05533524 100.38466057 105.61561781 101.70102418 105.17586565 103.01737618 C98.67507339 122.47776789 92.25167904 141.96166191 85.92409229 161.47907567 C85.5179786 162.73168376 85.5179786 162.73168376 85.10366058 164.00959706 C84.83516643 164.83781091 84.56667227 165.66602475 84.29004192 166.51933599 C81.13951045 176.22859135 77.94458955 185.92318877 74.74697113 195.61701894 C74.45440178 196.50410228 74.16183243 197.39118562 73.86039734 198.30515027 C72.37570036 202.80637276 70.89038429 207.3073906 69.40465546 211.8082726 C66.236392 221.40648334 63.07167044 231.00586231 59.90712738 240.60530019 C59.59582949 241.54955169 59.28453159 242.49380319 58.96380043 243.46666837 C51.95539854 264.72656083 44.98959698 286.00024782 38.03691864 307.27842641 C33.85557129 320.07270661 29.65949832 332.8621601 25.46448898 345.65196538 C18.91097618 365.63280338 12.36369191 385.61566858 5.82509613 405.60139394 C-0.62979612 425.33110697 -7.09196244 445.05842543 -13.55954742 464.78398061 C-14.23400631 466.84103162 -14.90843655 468.89809201 -15.58286285 470.9551537 C-16.83347152 474.76956604 -18.08424408 478.5839246 -19.33506012 482.39826894 C-19.71018234 483.54233205 -20.08530457 484.68639516 -20.47179413 485.86512685 C-20.81476028 486.91085866 -21.15772644 487.95659047 -21.51108551 489.03401113 C-21.80987106 489.94511647 -22.10865662 490.85622182 -22.41649628 491.79493642 C-22.99856003 493.56509977 -23.58564361 495.33361316 -24.17490387 497.10139394 C-42.64440322 498.14012096 -61.08753436 498.25088815 -79.57882643 498.23571944 C-83.72703326 498.23313876 -87.87523818 498.235549 -92.02344513 498.23710561 C-98.98409174 498.2389114 -105.94472765 498.23656364 -112.90537262 498.23176503 C-120.88003854 498.22632983 -128.85467885 498.22808619 -136.82934415 498.23359144 C-143.75158731 498.23817355 -150.67382289 498.23874838 -157.59606707 498.23615277 C-161.69727472 498.23461714 -165.79847046 498.23431944 -169.89967728 498.23768926 C-188.34733186 498.250845 -206.74566606 498.05249232 -225.17490387 497.10139394 C-223.13966553 487.61444414 -223.13966553 487.61444414 -221.76132965 483.52009511 C-221.36840225 482.3416528 -221.36840225 482.3416528 -220.96753693 481.13940358 C-220.68792114 480.31604009 -220.40830536 479.49267659 -220.12021637 478.64436269 C-219.67481003 477.31451093 -219.67481003 477.31451093 -219.22040558 475.95779347 C-218.25108357 473.06673806 -217.27547162 470.17784707 -216.29990387 467.28889394 C-215.61128139 465.23827094 -214.92313693 463.18748736 -214.23545074 461.13655019 C-212.85305876 457.01525307 -211.4685481 452.89467835 -210.08213043 448.77473378 C-207.82200202 442.05588187 -205.5797219 435.33115874 -203.34165192 428.60493398 C-202.15949799 425.05262852 -200.9758433 421.5008234 -199.79209137 417.94905019 C-199.39718506 416.76404424 -199.39718506 416.76404424 -198.99430084 415.55509877 C-197.21177744 410.20771932 -195.42688766 404.86113272 -193.64072418 399.51496816 C-179.48695204 357.2287939 -179.48695204 357.2287939 -165.59488678 314.85624623 C-159.47764397 295.96624814 -153.26096647 277.10920788 -147.04771423 258.25062871 C-136.47018481 226.16027846 -136.47018481 226.16027846 -125.98740387 194.03889394 C-119.1393471 172.94293466 -112.21199049 151.87312633 -105.28256989 130.80378652 C-104.91403003 129.68320143 -104.91403003 129.68320143 -104.53804493 128.53997827 C-104.2914321 127.79012627 -104.04481928 127.04027427 -103.79073334 126.26769948 C-103.54329817 125.51534205 -103.295863 124.76298463 -103.04092979 123.98782849 C-102.53794225 122.45845604 -102.03493746 120.92908925 -101.53191566 119.39972806 C-97.92792505 108.44183438 -94.33161717 97.48144598 -90.74080467 86.51922727 C-89.20896792 81.84356415 -87.67589901 77.16830486 -86.14283466 72.49304414 C-84.93398325 68.80611542 -83.72591403 65.1189349 -82.51990509 61.43107533 C-75.92176733 41.256532 -69.12975376 21.15583435 -62.17490387 1.10139394 C-41.45014125 -0.07094557 -20.74977633 -0.03148454 0 0 Z " fill="#502772" transform="translate(225.1749038696289,288.8986060619354)"/>
<path d="M0 0 C9.75474916 7.88781152 13.47287506 16.7121055 16.79296875 28.46435547 C17.05447723 29.38595396 17.31598572 30.30755245 17.5854187 31.25707817 C20.47940496 41.55830443 23.06643993 51.93170267 25.625 62.3203125 C26.1398992 64.40043926 26.65504161 66.48050583 27.17041016 68.56051636 C28.24168242 72.88773105 29.31032321 77.21558404 30.37695312 81.54394531 C31.72353276 87.00760806 33.07636698 92.46969893 34.43099976 97.93136978 C39.87696052 119.89827056 45.31410563 141.85589501 50 164 C53.84090551 153.99200676 57.4173166 143.94247896 60.72680664 133.74536133 C61.00903076 132.88193115 61.29125488 132.01850098 61.58203125 131.12890625 C61.83186768 130.35619385 62.0817041 129.58348145 62.33911133 128.78735352 C63 127 63 127 64 126 C66.46450458 125.89654585 68.90131471 125.85840955 71.36653137 125.86196899 C72.14704461 125.85914771 72.92755785 125.85632643 73.73172301 125.85341966 C76.36778937 125.84503454 79.00381394 125.84373204 81.63989258 125.84228516 C83.52202473 125.8376195 85.40415576 125.83247635 87.2862854 125.82688904 C91.35144254 125.81558373 95.41659224 125.80716104 99.48176003 125.80076981 C105.91630928 125.79010556 112.35080563 125.76986206 118.7853241 125.74765015 C137.08724528 125.68568225 155.38916445 125.6317945 173.69116211 125.59863281 C183.79024141 125.58025345 193.88923315 125.55126992 203.98824805 125.5106281 C209.33185141 125.48960199 214.67534457 125.47410718 220.01899147 125.47182083 C225.0546014 125.46966404 230.08998249 125.45368993 235.12552261 125.42743111 C236.96684823 125.42027395 238.80820168 125.41811961 240.64953804 125.42153358 C257.308177 125.44746921 272.02366128 123.6800819 284.8125 111.875 C292.83006172 103.39682432 296.49822575 93.4866863 296.4140625 81.984375 C295.61700013 76.23951035 292.03385825 73.59410511 287.6875 70.1875 C281.26015287 67.34750941 274.54593435 66.7029596 267.59068298 66.7215271 C266.79486755 66.7157347 265.99905213 66.7099423 265.17912108 66.70397437 C262.53986328 66.68710838 259.90078174 66.68410953 257.26147461 66.68115234 C255.35868915 66.6718449 253.45590774 66.66167502 251.5531311 66.65071106 C246.40714254 66.62348908 241.26118123 66.60828482 236.11513972 66.59528303 C230.72993147 66.57961829 225.34477859 66.55283875 219.95960999 66.5272522 C209.77075681 66.48052355 199.58189314 66.44375083 189.39298779 66.41057932 C177.78957981 66.37231612 166.18622753 66.32291696 154.58286655 66.27259517 C130.72195235 66.16936328 106.86100235 66.08007449 83 66 C83.94409481 64.89508121 84.88869237 63.79059197 85.83349609 62.6862793 C86.35946381 62.07116989 86.88543152 61.45606049 87.42733765 60.8223114 C98.028521 48.53826502 109.70160364 37.21777595 121.22509766 25.81176758 C121.82291046 25.21821976 122.42072327 24.62467194 123.03665161 24.01313782 C124.15850087 22.89946199 125.28241991 21.78786521 126.40890503 20.67887878 C129.68503615 17.42345674 132.74001941 14.04685829 135.70204163 10.50268555 C137.30627335 8.64541811 139.04935454 7.06480554 140.9375 5.5 C143.81600914 3.1149493 143.81600914 3.1149493 146.25811863 0.30554295 C148.83741176 -2.90190847 150.83628378 -4.74379506 154.92381096 -5.64370918 C158.61342534 -5.87647383 162.24650968 -5.88833471 165.94311523 -5.82641602 C167.35659869 -5.82771723 168.77008212 -5.83207696 170.18354797 -5.83924866 C174.01111089 -5.84977445 177.83719098 -5.81691062 181.6645 -5.7756207 C185.68750849 -5.73913198 189.71051068 -5.74105141 193.73365784 -5.73826599 C200.49839455 -5.72813232 207.26257737 -5.69197232 214.02709961 -5.63793945 C222.66494276 -5.56904726 231.30238789 -5.54105391 239.94047451 -5.52694798 C247.41057236 -5.5145785 254.88058734 -5.48485263 262.35061765 -5.4515636 C264.7282991 -5.4414817 267.1059818 -5.43337777 269.48367119 -5.42541695 C273.250461 -5.41154101 277.01704668 -5.38679891 280.78372002 -5.35426903 C282.79633749 -5.33886929 284.80901807 -5.33250784 286.82168579 -5.32659912 C298.81266544 -5.20222298 311.17501091 -4.40061589 322.6875 -0.8125 C323.73973755 -0.48886475 323.73973755 -0.48886475 324.81323242 -0.15869141 C342.14830766 5.44165915 356.01236151 16.7009938 364.6875 32.75 C374.36421734 53.254684 371.99977613 78.04442021 365 99 C351.29075972 135.95937075 323.67621973 166.11583811 288 183 C275.81089723 188.41583471 263.18598154 192.81300142 250 195 C249.03141556 195.165 248.06283112 195.33 247.06489563 195.5 C233.86579716 197.44296131 220.65666693 197.35118665 207.33848953 197.40471697 C203.90586891 197.42055104 200.47333166 197.44727426 197.04077148 197.4727478 C190.56729739 197.51918224 184.09380698 197.55609501 177.62025356 197.58942068 C170.23907607 197.62789485 162.85798304 197.67723696 155.47687721 197.72740483 C140.31798089 197.83019781 125.15903305 197.91962601 110 198 C109.71931168 198.8796492 109.71931168 198.8796492 109.43295288 199.77706909 C107.45456938 205.97633345 105.47455011 212.17507375 103.49365234 218.37353516 C102.75822123 220.67548912 102.02318361 222.97756883 101.28857422 225.27978516 C100.22210864 228.62176528 99.15414648 231.96326427 98.0859375 235.3046875 C97.60741837 236.80586624 97.60741837 236.80586624 97.11923218 238.33737183 C94.15949331 247.58707994 91.07195709 256.78412872 88 266 C-2.42 266 -92.84 266 -186 266 C-184.33963587 262.67927175 -183.23650172 260.9653976 -180.76953125 258.390625 C-180.13080078 257.71773437 -179.49207031 257.04484375 -178.83398438 256.3515625 C-178.16689453 255.65804688 -177.49980469 254.96453125 -176.8125 254.25 C-172.30658252 249.53335802 -167.88352361 244.77768815 -163.61010742 239.84863281 C-161.36727774 237.27354466 -159.06334608 234.76203838 -156.75 232.25 C-155.79291949 231.20968073 -154.83588965 230.16931485 -153.87890625 229.12890625 C-153.39953613 228.60828613 -152.92016602 228.08766602 -152.42626953 227.55126953 C-150.17428659 225.10192006 -147.93207349 222.64363859 -145.6875 220.1875 C-142.61270967 216.82579648 -139.52041315 213.48154285 -136.40625 210.15625 C-135.78919189 209.49729736 -135.17213379 208.83834473 -134.53637695 208.15942383 C-133.34100859 206.88450104 -132.14432019 205.61081408 -130.94604492 204.33862305 C-130.39021729 203.74605713 -129.83438965 203.15349121 -129.26171875 202.54296875 C-128.77662842 202.02758545 -128.29153809 201.51220215 -127.79174805 200.98120117 C-126.01624257 199.09515731 -126.01624257 199.09515731 -124.74484253 197.23684692 C-122.06414234 193.65534625 -120.86250864 192.16483396 -116.33105469 191.29882812 C-114.85989758 191.34119745 -113.38958313 191.4220198 -111.921875 191.53125 C-110.13090873 191.59642276 -108.33988752 191.66009495 -106.54882812 191.72265625 C-105.52829346 191.76986816 -104.50775879 191.81708008 -103.45629883 191.86572266 C-99.543258 192.01774444 -95.63219664 192.07964289 -91.71679688 192.12109375 C-90.97800041 192.12897919 -90.23920395 192.13686462 -89.47801971 192.14498901 C-87.94089966 192.16110423 -86.40377751 192.17702077 -84.86665344 192.19274902 C-80.91225141 192.23648236 -76.9581005 192.29616368 -73.00390625 192.35546875 C-71.38818375 192.3794053 -69.7724611 192.40333102 -68.15673828 192.42724609 C-67.35057068 192.43923035 -66.54440308 192.4512146 -65.71380615 192.46356201 C-61.56312573 192.5249477 -57.41242124 192.58466027 -53.26171875 192.64453125 C-45.17445529 192.76142215 -37.08721955 192.88010938 -29 193 C-29.31335297 192.02360062 -29.62670593 191.04720123 -29.94955444 190.04121399 C-32.94668578 180.62539683 -35.63298648 171.17482829 -38.1015625 161.60546875 C-38.46801522 160.19727912 -38.83483483 158.78918493 -39.20199585 157.38117981 C-40.15438793 153.72533007 -41.10228386 150.06833093 -42.04901123 146.41101074 C-43.1984548 141.97377123 -44.35293616 137.53784034 -45.50707054 133.10181904 C-46.40502464 129.65031167 -47.30216524 126.19860179 -48.19644165 122.74613953 C-50.08063233 115.48315285 -52.00297867 108.23281735 -54 101 C-55.1282554 102.1282554 -56.25614956 103.25687314 -57.3828125 104.38671875 C-58.53917449 105.5402876 -59.70129744 106.68809309 -60.8671875 107.83203125 C-64.73837171 111.65049506 -68.41506199 115.55511771 -71.9609375 119.67578125 C-74.54753292 122.62410362 -77.20835124 125.49916154 -79.875 128.375 C-83.44434143 132.2259865 -86.99646017 136.08877553 -90.5 140 C-95.42696174 145.49511589 -100.43813983 150.91067473 -105.45166016 156.32666016 C-107.9703704 159.04870998 -110.4849812 161.77454001 -113 164.5 C-114.00259742 165.58594373 -115.00520159 166.67188122 -116.0078125 167.7578125 C-117.98290792 169.89739212 -119.95678123 172.03808918 -121.9296875 174.1796875 C-127.85882796 180.61343565 -133.81427198 187.02173952 -139.78857422 193.41357422 C-143.54000059 197.42934553 -147.27670869 201.45813831 -151 205.5 C-155.90729236 210.82716764 -160.84522023 216.12506931 -165.79125977 221.41625977 C-170.00789847 225.92982035 -174.20090708 230.46442851 -178.3840332 235.0090332 C-183.049723 240.07002884 -187.76186975 245.08713413 -192.48608398 250.09350586 C-193.07204346 250.71620361 -193.65800293 251.33890137 -194.26171875 251.98046875 C-194.84262772 252.57556244 -195.42353668 253.17065613 -196.02204895 253.78378296 C-198.06743381 255.96166214 -198.06743381 255.96166214 -199.64923096 258.54570007 C-202.17025265 262.11585654 -204.5763493 265.30385122 -208.94086647 266.55747795 C-214.75359806 267.42504775 -220.6173753 267.14664906 -226.47265625 266.9765625 C-228.36547596 266.95788766 -230.25834433 266.94366419 -232.15122986 266.9336853 C-237.10911907 266.89568611 -242.06403109 266.79762582 -247.02075195 266.68664551 C-252.08829476 266.58394428 -257.15632359 266.5385911 -262.22460938 266.48828125 C-272.15104051 266.38135856 -282.07527175 266.21091919 -292 266 C-290.58113789 263.06198673 -289.12476607 260.80529563 -286.9375 258.375 C-286.31746094 257.68148438 -285.69742188 256.98796875 -285.05859375 256.2734375 C-284.03958984 255.14808594 -284.03958984 255.14808594 -283 254 C-282.26910156 253.18789062 -281.53820312 252.37578125 -280.78515625 251.5390625 C-279.25129445 249.83477161 -277.71611985 248.13166138 -276.1796875 246.4296875 C-274.30854906 244.3439382 -272.46075169 242.24182372 -270.625 240.125 C-267.21520847 236.21005417 -263.70660037 232.38822604 -260.19238281 228.56738281 C-255.03531709 222.95850024 -249.9454366 217.29005807 -244.86328125 211.61328125 C-239.64134097 205.79133347 -234.3534453 200.03393358 -229.04296875 194.29296875 C-226.16605226 191.18217146 -223.29952732 188.06199517 -220.4375 184.9375 C-219.98705322 184.44580322 -219.53660645 183.95410645 -219.07250977 183.44750977 C-217.71482037 181.96517684 -216.35736493 180.48263005 -215 179 C-207.85366146 171.19415797 -200.68953811 163.40517311 -193.50732422 155.63232422 C-192.02589866 154.02804639 -190.54591008 152.42245634 -189.06640625 150.81640625 C-183.71047999 145.00420142 -178.33522536 139.21092348 -172.9375 133.4375 C-167.83014702 127.9738848 -162.75731385 122.48087409 -157.7109375 116.9609375 C-154.81793515 113.7974426 -151.90956329 110.64825843 -149 107.5 C-143.77177585 101.84120632 -138.56155861 96.16617115 -133.35888672 90.48388672 C-130.61471132 87.48728269 -127.8684281 84.49261017 -125.12255859 81.49755859 C-122.84274634 79.01071125 -120.56340942 76.52343204 -118.28515625 74.03515625 C-113.51398529 68.82533571 -108.73279832 63.62512698 -103.9375 58.4375 C-95.10125803 48.93713216 -95.10125803 48.93713216 -86.48266602 39.24194336 C-67.74923826 17.54046782 -31.62359644 -21.40595624 0 0 Z " fill="#502772" transform="translate(1092,987)"/>
<path d="M0 0 C2.051595 0.00056546 4.10319039 0.00024493 6.15478516 -0.00088501 C11.67435908 -0.00145427 17.19384447 0.01023031 22.71339798 0.02426291 C28.50025218 0.03684203 34.28710885 0.03794639 40.07397461 0.04031372 C51.00991184 0.04650751 61.94580866 0.06288967 72.88172817 0.0830127 C85.34134863 0.10543739 97.80097112 0.11638159 110.26060677 0.12640357 C135.87037476 0.14725794 161.48010698 0.18239271 187.08984375 0.22705078 C182.73293425 6.8359281 182.73293425 6.8359281 180.17651367 9.3515625 C179.36998604 10.153022 179.36998604 10.153022 178.54716492 10.97067261 C177.69237297 11.80527512 177.69237297 11.80527512 176.8203125 12.65673828 C176.22108475 13.25076447 175.62185699 13.84479065 175.00447083 14.45681763 C173.10016837 16.34343047 171.18929543 18.22319289 169.27734375 20.10205078 C166.76743049 22.57518992 164.26075559 25.05154506 161.7578125 27.53173828 C161.15826752 28.12569397 160.55872253 28.71964966 159.94100952 29.331604 C156.33963837 32.92054815 152.90745724 36.5937645 149.6184082 40.47363281 C146.78247394 43.72673613 143.66965718 46.70720042 140.58984375 49.72705078 C136.11458454 54.15418304 131.69683516 58.56294812 127.6796875 63.41845703 C127.15503906 64.01529297 126.63039063 64.61212891 126.08984375 65.22705078 C125.37318542 66.23939285 124.6565271 67.25173492 123.91815186 68.29475403 C119.76302302 72.380986 115.11689055 71.95122307 109.55444336 72.00370789 C108.11864611 71.98713397 106.68285513 71.9700105 105.24707031 71.95239258 C103.72547639 71.95565369 102.2038862 71.96159278 100.68231201 71.97000122 C97.41145303 71.98239104 94.14136522 71.97599115 90.87055206 71.95493126 C85.69198113 71.92180052 80.5140112 71.93118611 75.33538818 71.94624329 C67.13797186 71.96511762 58.94086531 71.95610523 50.74346328 71.93492204 C36.08091706 71.89726136 21.41841633 71.89313248 6.75584769 71.91977435 C1.61530762 71.92783592 -3.52485574 71.91933648 -8.66535139 71.89721143 C-11.87366162 71.88607015 -15.08189096 71.88712519 -18.29021454 71.89108658 C-19.76958428 71.89030486 -21.24896228 71.88440963 -22.72828674 71.87280846 C-36.45051102 71.59457247 -36.45051102 71.59457247 -48.47265625 77.35205078 C-50.42131923 81.24937674 -50.72221053 84.91369648 -50.91015625 89.22705078 C-44.36094928 90.20453025 -37.96384577 90.38428136 -31.34790039 90.40063477 C-29.64609619 90.41066528 -29.64609619 90.41066528 -27.90991211 90.42089844 C-25.45515558 90.43490252 -23.00038639 90.44681115 -20.54561043 90.45684624 C-16.64628151 90.47335208 -12.74704528 90.49659665 -8.84776306 90.52174377 C2.23628792 90.59255468 13.32038373 90.65242279 24.40454102 90.70385742 C31.19602074 90.73545409 37.98738895 90.77720106 44.77877998 90.82405281 C47.35204701 90.83994512 49.92533845 90.85232463 52.49864006 90.86096001 C103.95282057 91.03604776 103.95282057 91.03604776 123.87109375 109.94580078 C135.99209556 122.40823926 139.5096987 136.64029743 139.45556641 153.56518555 C139.18869636 168.32260953 135.30966405 181.90647619 129.08984375 195.22705078 C128.65696045 196.15662598 128.65696045 196.15662598 128.21533203 197.10498047 C113.77968116 227.41282074 86.35374348 250.2247722 55.01953125 261.54345703 C54.38273438 261.76904297 53.7459375 261.99462891 53.08984375 262.22705078 C52.44789063 262.45521484 51.8059375 262.68337891 51.14453125 262.91845703 C31.13408009 269.89421192 11.03054258 271.38328522 -10.0168457 271.35644531 C-11.81691523 271.35780293 -13.61698449 271.35958488 -15.41705322 271.36175537 C-20.27463987 271.36628781 -25.13220512 271.3645572 -29.98979211 271.36137629 C-35.09566823 271.35882977 -40.20154262 271.36119669 -45.30741882 271.36276245 C-53.88227667 271.36457798 -62.45712589 271.36219456 -71.03198242 271.35742188 C-80.91238101 271.35198566 -90.79275895 271.35373975 -100.67315704 271.35924828 C-109.18736519 271.36380324 -117.70156717 271.36441817 -126.21577615 271.36180961 C-131.2871018 271.36025925 -136.35841779 271.36001868 -141.42974281 271.3633461 C-146.20276977 271.36625939 -150.97577041 271.36418633 -155.74879456 271.35845184 C-157.48890324 271.35714241 -159.22901418 271.35748698 -160.96912193 271.35971451 C-171.33030851 271.37174321 -181.57989223 271.06806914 -191.91015625 270.22705078 C-190.06295595 266.20050884 -187.38508996 263.51112002 -184.22265625 260.47705078 C-180.86953008 257.23954965 -177.64613622 253.96938455 -174.609375 250.43017578 C-169.69813036 244.74411367 -164.28888948 239.56030639 -158.9375 234.29345703 C-158.13441406 233.49810547 -157.33132813 232.70275391 -156.50390625 231.88330078 C-155.78912109 231.18011719 -155.07433594 230.47693359 -154.33789062 229.75244141 C-149.51655909 224.73717055 -145.10996946 219.49869882 -140.94361877 213.9281311 C-133.95551178 205.20411269 -127.23797083 197.93359906 -115.81539917 196.36297607 C-106.99720152 195.43203042 -98.10818345 195.71845115 -89.26162028 195.99464369 C-84.78738735 196.11062157 -80.31327093 196.10215425 -75.83778381 196.10733032 C-67.38247937 196.1348873 -58.93235437 196.26622262 -50.47889572 196.43889391 C-38.08027339 196.68716085 -25.68027214 196.77089164 -13.2796793 196.86220741 C-11.44016009 196.87603717 -9.60064153 196.88995438 -7.76112366 196.90396118 C-6.86233209 196.91066381 -5.96354052 196.91736644 -5.03751284 196.92427218 C0.26441639 196.96723019 5.56504454 197.03794974 10.86625588 197.13497329 C14.16848993 197.19424365 17.47084241 197.24206145 20.77327728 197.28861427 C22.29222459 197.31315503 23.81109579 197.34318683 25.32980919 197.37941933 C37.71788384 197.67288959 51.12349858 196.95668511 61.02734375 188.59033203 C65.13613815 184.64417741 68.67996678 181.03763571 69.52734375 175.22705078 C68.94740089 171.25029972 68.08570846 169.93759504 65.08984375 167.22705078 C58.11058631 163.54526372 51.63436633 162.58400087 43.83984375 162.47705078 C42.70272949 162.44812744 41.56561523 162.4192041 40.39404297 162.3894043 C20.96585209 161.97493958 1.52078827 162.16136523 -17.91015625 162.22705078 C-25.01019022 162.25093061 -32.11020094 162.27119537 -39.21026611 162.2829895 C-41.99877204 162.28932608 -44.78720151 162.30181591 -47.57568359 162.31469727 C-56.12158439 162.34026834 -64.64641723 162.23708686 -73.18359375 161.82861328 C-73.93903976 161.79538467 -74.69448578 161.76215607 -75.4728241 161.72792053 C-92.03300834 160.82363022 -107.91732671 154.93722104 -119.91015625 143.22705078 C-129.85426491 131.59691678 -134.54443347 119.50650512 -133.91015625 104.22705078 C-131.10124699 74.30576796 -116.51677205 48.04207747 -93.72265625 28.60205078 C-65.65540024 6.64845449 -35.00900185 -0.13672665 0 0 Z " fill="#502772" transform="translate(562.91015625,981.77294921875)"/>
<path d="M0 0 C18.52436648 12.77452801 21.04782846 35.74809989 26.1015625 56.078125 C26.69685949 58.46204605 27.29244719 60.84589452 27.88830566 63.22967529 C29.31327597 68.93402706 30.73490705 74.63920293 32.15485263 80.34480739 C33.30127979 84.95094431 34.44938022 89.5566614 35.59857178 94.16210938 C44.20525253 128.65454977 52.77673038 163.15563569 61.2578125 197.67919922 C61.93221811 200.42417173 62.60669673 203.16912628 63.28125 205.9140625 C63.4412146 206.56509319 63.6011792 207.21612389 63.76599121 207.88688278 C65.99603014 216.95959066 68.25187432 226.02550297 70.53125 235.0859375 C70.80097626 236.15894104 71.07070251 237.23194458 71.34860229 238.33746338 C72.56325572 243.1664273 73.78194272 247.99430787 75.00830078 252.8203125 C75.414471 254.42966656 75.82056409 256.03904009 76.2265625 257.6484375 C76.40989136 258.36309174 76.59322021 259.07774597 76.78210449 259.8140564 C77.49065956 262.63343118 78 265.07846853 78 268 C49.72835467 268.02351661 21.45671083 268.04107025 -6.81494236 268.05181217 C-19.94637443 268.05693572 -33.07780038 268.06390183 -46.20922852 268.07543945 C-57.67456328 268.08550827 -69.13989359 268.09188196 -80.60523266 268.09408849 C-86.65783835 268.09537523 -92.71043135 268.0983281 -98.76303291 268.10573006 C-126.85916631 268.13879578 -154.91762749 267.92192064 -183 267 C-182.04160353 265.71276626 -181.08191911 264.42649137 -180.12168884 263.140625 C-179.58740233 262.42422852 -179.05311583 261.70783203 -178.50263882 260.96972656 C-176.89766695 258.86585724 -175.20790748 256.91195578 -173.37890625 255 C-172.75306641 254.34 -172.12722656 253.68 -171.48242188 253 C-170.84884766 252.34 -170.21527344 251.68 -169.5625 251 C-165.17967561 246.40633349 -160.8914817 241.76531482 -156.73071289 236.96923828 C-153.87558731 233.7206217 -150.90672825 230.58155234 -147.9375 227.4375 C-146.62227461 226.03917651 -145.30717351 224.64073611 -143.9921875 223.2421875 C-143.33057617 222.53932617 -142.66896484 221.83646484 -141.98730469 221.11230469 C-138.84032923 217.76738679 -135.69980013 214.41649182 -132.5625 211.0625 C-132.02036865 210.48491943 -131.4782373 209.90733887 -130.91967773 209.31225586 C-130.39059814 208.74643799 -129.86151855 208.18062012 -129.31640625 207.59765625 C-128.79623932 207.06471451 -128.27607239 206.53177277 -127.74014282 205.98268127 C-125.93221992 204.0467848 -125.93221992 204.0467848 -124.65342712 201.71850586 C-122.36856376 198.25746369 -120.17257828 195.56725331 -116.01317024 194.48124504 C-109.81405068 193.62496371 -103.55479174 193.82066057 -97.3125 193.90234375 C-95.28367678 193.89668675 -93.25486108 193.88707071 -91.22607422 193.87367249 C-85.90564458 193.84911195 -80.58682096 193.87809814 -75.26654053 193.91845703 C-69.82998216 193.95015056 -64.39362631 193.9309027 -58.95703125 193.91601562 C-48.30427339 193.89431578 -37.65251687 193.92921582 -27 194 C-27.16793564 193.38867722 -27.33587128 192.77735443 -27.50889587 192.14750671 C-35.56230329 162.82133769 -43.58687236 133.49557012 -51 104 C-54.57794452 107.55299372 -58.15241386 111.10943651 -61.72387695 114.66894531 C-62.93617248 115.87625065 -64.1493687 117.08265234 -65.36352539 118.28808594 C-74.25413699 127.07913308 -74.25413699 127.07913308 -82.59936523 136.3828125 C-84.15483516 138.17877429 -85.80552287 139.8348935 -87.5 141.5 C-89.86358972 143.82437087 -92.08885957 146.20513786 -94.25 148.71875 C-98.49911906 153.60636103 -102.94143033 158.29899449 -107.39453125 163 C-111.1091894 166.93769146 -114.71887207 170.94365157 -118.26757812 175.03125 C-121.6664939 178.89382847 -125.22021328 182.61294935 -128.75 186.35546875 C-131.70672174 189.50358543 -134.61366467 192.68000479 -137.4453125 195.94140625 C-141.15230028 200.20557932 -144.99569685 204.33019493 -148.875 208.4375 C-149.57681396 209.18249756 -150.27862793 209.92749512 -151.00170898 210.69506836 C-154.63535822 214.5404599 -158.29845517 218.34380511 -162.0625 222.0625 C-166.41296548 226.36399213 -170.39116912 230.91761269 -174.34228516 235.5859375 C-180.48987883 242.83973534 -186.73716949 249.936063 -193.4375 256.6875 C-194.00412354 257.26322754 -194.57074707 257.83895508 -195.15454102 258.43212891 C-206.16216959 269.36014511 -217.68872657 268.14587801 -232.28515625 268.09765625 C-233.95381121 268.09578821 -235.62246673 268.09436613 -237.29112244 268.09336853 C-241.65580799 268.08957374 -246.02045958 268.07976982 -250.38513184 268.06866455 C-254.84984885 268.05838469 -259.31457141 268.0538569 -263.77929688 268.04882812 C-272.51954673 268.03814447 -281.25976912 268.02110508 -290 268 C-288.41209351 264.67235706 -286.63178158 262.28506681 -284.125 259.5625 C-283.32320312 258.68722656 -282.52140625 257.81195312 -281.6953125 256.91015625 C-280.80585937 255.94980469 -279.91640625 254.98945312 -279 254 C-278.01803861 252.93637381 -277.03627354 251.87256634 -276.0546875 250.80859375 C-274.51937705 249.14515561 -272.98354336 247.482217 -271.44604492 245.82080078 C-267.68374145 241.75289612 -263.96855572 237.6451099 -260.26953125 233.51953125 C-255.41443591 228.12962334 -250.49220458 222.80048195 -245.58398438 217.45898438 C-244.18058719 215.93135839 -242.77762825 214.40333203 -241.375 212.875 C-240.91407959 212.37282959 -240.45315918 211.87065918 -239.97827148 211.35327148 C-237.19434399 208.31585459 -234.4339233 205.25882365 -231.6875 202.1875 C-227.24563704 197.23526141 -222.70038732 192.38314981 -218.15307617 187.52807617 C-214.89941584 184.04963186 -211.6733461 180.5522531 -208.5 177 C-204.7265588 172.77599866 -200.87166228 168.63366216 -197 164.5 C-192.36553314 159.55124877 -187.78131581 154.56598164 -183.26171875 149.51171875 C-179.07140728 144.8582295 -174.80653832 140.27312358 -170.55273438 135.67773438 C-168.0123352 132.93282508 -165.47467663 130.18538781 -162.9375 127.4375 C-162.44016357 126.89891357 -161.94282715 126.36032715 -161.43041992 125.80541992 C-157.65877539 121.71880524 -153.89962865 117.6208802 -150.14428711 113.51928711 C-146.7719881 109.83772478 -143.38818187 106.16694599 -140 102.5 C-134.77184474 96.84114233 -129.56155894 91.16617151 -124.35888672 85.48388672 C-122.53220583 83.48917482 -120.70450295 81.49540093 -118.87670898 79.50170898 C-117.96076778 78.50260376 -117.04491455 77.50341789 -116.12915039 76.50415039 C-113.81406372 73.97803926 -111.49788212 71.45294702 -109.1796875 68.9296875 C-104.95233249 64.32650235 -100.73473917 59.71586224 -96.5625 55.0625 C-92.61214986 50.66148603 -88.6107612 46.31004999 -84.59326172 41.97045898 C-81.5810189 38.71622084 -78.58275704 35.45004788 -75.59765625 32.17089844 C-73.40860871 29.77113233 -71.20509555 27.38503135 -69 25 C-68.41089844 24.35546875 -67.82179688 23.7109375 -67.21484375 23.046875 C-50.79079688 5.77539573 -23.79704946 -11.37719761 0 0 Z " fill="#7C559E" transform="translate(1622,985)"/>
<path d="M0 0 C7.93232875 6.9133792 13.36900455 16.21850355 19 25 C19.89619919 26.38211794 20.79334592 27.7636219 21.69140625 29.14453125 C24.00493143 32.70567506 26.30840229 36.27319514 28.60888672 39.84277344 C30.90153257 43.39802418 33.20105042 46.94882358 35.5 50.5 C38.20455314 54.67876607 40.90856147 58.85787824 43.609375 63.0390625 C59.59814646 87.78557767 75.79564973 112.39439134 92 137 C94.44999111 130.62775593 96.62501197 124.19013834 98.73828125 117.69921875 C99.27412842 116.06022614 99.27412842 116.06022614 99.82080078 114.38812256 C100.58743417 112.04228229 101.3532479 109.69617402 102.11831665 107.349823 C103.32810253 103.63965014 104.54016877 99.93022846 105.75268555 96.22094727 C109.46320652 84.86520619 113.16393124 73.50635322 116.84375 62.140625 C117.99947408 58.57274602 119.15567042 55.00502069 120.3125 51.4375 C120.59012177 50.58130066 120.86774353 49.72510132 121.15377808 48.84295654 C127.22102013 30.15343307 133.59429558 11.57654281 140 -7 C163.1 -7 186.2 -7 210 -7 C209.2391765 -1.67423552 208.24376571 2.67739878 206.4296875 7.62890625 C205.86896092 9.20050909 205.30851175 10.77221092 204.74829102 12.34399414 C204.44529083 13.18705109 204.14229065 14.03010803 203.83010864 14.89871216 C196.38321776 35.66801158 189.43544718 56.59833178 182.5625 77.5625 C182.18966007 78.69913589 182.18966007 78.69913589 181.80928802 79.85873413 C175.77179854 98.26651889 169.79373252 116.69185069 163.92474365 135.15414429 C157.56113853 155.16793649 151.07299617 175.13984105 144.47973633 195.07907104 C143.46194308 198.15803085 142.44906064 201.2385342 141.44067383 204.32058716 C140.24799571 207.96479012 139.04451535 211.6052594 137.83325386 215.24332619 C137.38941826 216.58188476 136.94908216 217.92161034 136.5127697 219.26264 C130.45123845 237.86829462 122.42041084 254.27477991 104.5 263.875 C97.11245626 266.26465912 87.97194124 266.66936661 80.765625 263.640625 C78.00344755 261.91617168 75.51076583 260.07042916 73 258 C72.36964844 257.54496094 71.73929688 257.08992188 71.08984375 256.62109375 C60.9006906 248.84577187 54.27829625 235.98153975 47.47998047 225.3125 C44.94947626 221.358535 42.37771201 217.43149606 39.8125 213.5 C35.60535125 207.04258892 31.43961907 200.5603176 27.30053711 194.05908203 C20.52455782 183.41955468 13.6217141 172.87856269 6.59539795 162.40371704 C1.26931448 154.46059693 -3.92708391 146.45049319 -8.99023438 138.3371582 C-13.12024792 131.74191432 -17.49114802 125.34199635 -22 119 C-25.03022103 126.28239091 -27.62156244 133.65149561 -30.0546875 141.15234375 C-30.432836 142.30912628 -30.8109845 143.46590881 -31.20059204 144.65774536 C-32.21787261 147.77183829 -33.23224232 150.88685996 -34.24526978 154.00233841 C-35.3075126 157.26661165 -36.37371649 160.52959075 -37.43945312 163.79272461 C-39.96451793 171.526896 -42.48315556 179.26314974 -45 187 C-45.35372681 188.0873645 -45.70745361 189.174729 -46.07189941 190.29504395 C-47.64129134 195.12000638 -49.21020297 199.94512493 -50.77905273 204.77026367 C-55.35038756 218.82857698 -59.92475273 232.88569296 -64.58007812 246.91647339 C-65.06331327 248.37360856 -65.54559321 249.83106091 -66.02685547 251.28884888 C-66.67762979 253.25869401 -67.33229681 255.22719733 -67.98828125 257.1953125 C-68.35477783 258.29891113 -68.72127441 259.40250977 -69.09887695 260.53955078 C-70 263 -70 263 -71 264 C-73.14743549 264.09425595 -75.29801026 264.11742648 -77.44750977 264.11352539 C-78.45722336 264.11374443 -78.45722336 264.11374443 -79.48733521 264.1139679 C-81.72205784 264.11326878 -83.9566981 264.10547652 -86.19140625 264.09765625 C-87.73697362 264.09579206 -89.28254157 264.09436816 -90.82810974 264.09336853 C-94.90357077 264.0895434 -98.97899637 264.07971317 -103.05444336 264.06866455 C-107.21011882 264.05845032 -111.36579999 264.05387089 -115.52148438 264.04882812 C-123.68100587 264.03809089 -131.84049853 264.02101454 -140 264 C-139.40842498 258.98260561 -138.33977364 254.51193772 -136.74121094 249.69360352 C-136.51099463 248.99420056 -136.28077833 248.29479761 -136.04358578 247.57420063 C-135.27940295 245.25722452 -134.50689621 242.94311419 -133.734375 240.62890625 C-133.18760273 238.97642343 -132.64137609 237.32375999 -132.09565735 235.67092896 C-130.92938414 232.14223131 -129.75949716 228.61476112 -128.58670044 225.08822632 C-126.73220166 219.51167814 -124.88576162 213.93248338 -123.04077148 208.3527832 C-121.16303752 202.6752365 -119.28484007 196.99784602 -117.40379333 191.32139587 C-112.35068028 176.0723966 -107.32942832 160.8131436 -102.32736206 145.54733276 C-101.06352481 141.69022786 -99.79858567 137.83348492 -98.53344727 133.97680664 C-94.65821747 122.16273488 -90.78598567 110.34768152 -86.91511536 98.53218079 C-85.3269871 93.68458565 -83.73851096 88.83710451 -82.14998913 83.98963833 C-80.68074245 79.50593907 -79.21245177 75.02192748 -77.74438477 70.5378418 C-75.86411498 64.79656113 -73.9793749 59.05676663 -72.09100342 53.31814575 C-71.35388335 51.07629041 -70.61811855 48.83398907 -69.88360596 46.59127808 C-68.80781424 43.3082524 -67.72679807 40.0269897 -66.64453125 36.74609375 C-66.32759811 35.77546997 -66.01066498 34.80484619 -65.68412781 33.80480957 C-60.62003129 18.51265128 -53.78537387 4.82015523 -39 -3 C-36.04626156 -4.24702534 -33.10198471 -5.19776257 -30 -6 C-29.071875 -6.2475 -28.14375 -6.495 -27.1875 -6.75 C-16.94194528 -7.55357292 -8.58071718 -5.82390819 0 0 Z " fill="#502772" transform="translate(241,989)"/>
<path d="M0 0 C1.41348345 -0.00130122 2.82696688 -0.00566095 4.24043274 -0.01283264 C8.06799566 -0.02335844 11.89407575 0.00950539 15.72138476 0.05079532 C19.74439325 0.08728403 23.76739544 0.08536461 27.7905426 0.08815002 C34.55527932 0.09828369 41.31946213 0.13444369 48.08398438 0.18847656 C56.72182753 0.25736875 65.35927266 0.2853621 73.99735928 0.29946804 C81.46745713 0.31183752 88.93747211 0.34156338 96.40750241 0.37485242 C98.78518387 0.38493431 101.16286657 0.39303824 103.54055595 0.40099907 C107.30734577 0.41487501 111.07393144 0.4396171 114.84060478 0.47214699 C116.85322226 0.48754672 118.86590284 0.49390818 120.87857056 0.49981689 C132.86955021 0.62419304 145.23189568 1.42580013 156.74438477 5.01391602 C157.79662231 5.33755127 157.79662231 5.33755127 158.87011719 5.66772461 C176.20519243 11.26807516 190.06924628 22.52740982 198.74438477 38.57641602 C208.4211021 59.08110002 206.05666089 83.87083623 199.05688477 104.82641602 C185.34764449 141.78578677 157.73310449 171.94225413 122.05688477 188.82641602 C109.867782 194.24225073 97.24286631 198.63941744 84.05688477 200.82641602 C83.08830032 200.99141602 82.11971588 201.15641602 81.1217804 201.32641602 C67.92268192 203.26937732 54.7135517 203.17760267 41.3953743 203.23113298 C37.96275368 203.24696706 34.53021643 203.27369027 31.09765625 203.29916382 C24.62418216 203.34559825 18.15069174 203.38251103 11.67713833 203.41583669 C4.29596083 203.45431086 -3.08513219 203.50365297 -10.46623802 203.55382085 C-25.62513435 203.65661383 -40.78408218 203.74604202 -55.94311523 203.82641602 C-56.13024078 204.41284882 -56.31736633 204.99928162 -56.51016235 205.60348511 C-58.48854585 211.80274947 -60.46856512 218.00148977 -62.44946289 224.19995117 C-63.184894 226.50190513 -63.91993162 228.80398485 -64.65454102 231.10620117 C-65.72100659 234.44818129 -66.78896876 237.78968029 -67.85717773 241.13110352 C-68.17619049 242.13188934 -68.49520325 243.13267517 -68.82388306 244.16378784 C-71.78362192 253.41349595 -74.87115814 262.61054473 -77.94311523 271.82641602 C-100.71311523 271.82641602 -123.48311523 271.82641602 -146.94311523 271.82641602 C-145.81841583 263.95352019 -145.81841583 263.95352019 -144.7824707 260.93798828 C-144.5500769 260.25067123 -144.31768311 259.56335419 -144.07824707 258.85520935 C-143.82482544 258.12512161 -143.57140381 257.39503387 -143.31030273 256.64282227 C-142.75346544 255.00106944 -142.19666379 253.35930453 -141.63989258 251.7175293 C-141.34379089 250.85194397 -141.04768921 249.98635864 -140.74261475 249.09454346 C-135.00200734 232.29416149 -129.56639803 215.41141258 -124.31811523 198.45141602 C-119.73964858 183.67787019 -115.08330042 168.93753633 -110.19311523 154.26391602 C-109.94422546 153.51402405 -109.69533569 152.76413208 -109.43890381 151.99151611 C-108.74100591 149.89221071 -108.03845908 147.79453405 -107.33374023 145.69750977 C-106.74641113 143.94845337 -106.74641113 143.94845337 -106.1472168 142.1640625 C-104.87745288 138.64440669 -103.42919477 135.25950931 -101.94311523 131.82641602 C-100.95950642 131.82402766 -99.9758976 131.82163931 -98.96248245 131.81917858 C-74.99913014 131.76031316 -51.0358778 131.68438684 -27.07263565 131.5907011 C-15.48406129 131.54578746 -3.89551736 131.50636255 7.69311523 131.47998047 C17.79695544 131.45696453 27.90069899 131.42352631 38.00446248 131.37771446 C43.35142643 131.35383079 48.69829495 131.33507019 54.04531097 131.32880211 C59.08502351 131.32272929 64.12449202 131.30265029 69.164114 131.2721405 C71.00704691 131.26339541 72.85001175 131.25963033 74.69296455 131.26140785 C91.35363501 131.27239682 106.07878871 129.50812007 118.86938477 117.70141602 C126.88694648 109.22324034 130.55511052 99.31310232 130.47094727 87.81079102 C129.67388489 82.06592636 126.09074301 79.42052113 121.74438477 76.01391602 C115.31703764 73.17392542 108.60281911 72.52937561 101.64756775 72.54794312 C100.45384461 72.53925451 100.45384461 72.53925451 99.23600584 72.53039038 C96.59674804 72.51352439 93.95766651 72.51052555 91.31835938 72.50756836 C89.41557391 72.49826091 87.51279251 72.48809103 85.61001587 72.47712708 C80.4640273 72.4499051 75.31806599 72.43470083 70.17202449 72.42169905 C64.78681623 72.4060343 59.40166336 72.37925476 54.01649475 72.35366821 C43.82764157 72.30693957 33.63877791 72.27016685 23.44987255 72.23699534 C11.84646457 72.19873213 0.24311229 72.14933298 -11.36024868 72.09901118 C-35.22116288 71.9957793 -59.08211288 71.9064905 -82.94311523 71.82641602 C-81.99902042 70.72149722 -81.05442286 69.61700799 -80.10961914 68.51269531 C-79.58365143 67.89758591 -79.05768372 67.2824765 -78.51577759 66.64872742 C-67.91459424 54.36468104 -56.24151159 43.04419197 -44.71801758 31.63818359 C-44.12020477 31.04463577 -43.52239197 30.45108795 -42.90646362 29.83955383 C-41.78461437 28.725878 -40.66069532 27.61428122 -39.53421021 26.5052948 C-36.25807908 23.24987275 -33.20309583 19.87327431 -30.24107361 16.32910156 C-28.63684188 14.47183412 -26.89376069 12.89122155 -25.00561523 11.32641602 C-22.12710609 8.94136532 -22.12710609 8.94136532 -19.6849966 6.13195896 C-14.21596551 -0.66899411 -8.24440239 -0.13809497 0 0 Z " fill="#7C559E" transform="translate(1257.943115234375,981.173583984375)"/>
<path d="M0 0 C65.67 0 131.34 0 199 0 C198.25838631 5.19129581 197.43116131 9.21280533 195.8137207 14.08886719 C195.59190345 14.763073 195.37008619 15.4372788 195.1415472 16.13191509 C194.40849286 18.355441 193.66715722 20.57611132 192.92578125 22.796875 C192.40487818 24.3717349 191.88452416 25.9467765 191.36468506 27.52198792 C190.26096844 30.86291638 189.15369077 34.20263385 188.04348755 37.54141235 C186.29648975 42.79545117 184.55748955 48.05211393 182.82006836 53.30932617 C181.09552109 58.52669801 179.37072985 63.74398652 177.64320374 68.96037292 C173.99674193 79.97207945 170.37632885 90.99170215 166.80267334 102.02728271 C160.2573471 122.23537702 153.6306671 142.41706362 147.00216675 162.59799194 C145.79483116 166.27415545 144.58894607 169.95078987 143.38430786 173.62783813 C141.9587444 177.97897395 140.53023929 182.32913296 139.09948349 186.67856407 C138.56354334 188.30944595 138.02864706 189.94067125 137.49481583 191.57224464 C136.75870501 193.82139403 136.01887806 196.06928668 135.27807617 198.31689453 C135.06051194 198.98455998 134.84294771 199.65222544 134.61879063 200.34012318 C133.11412095 204.88587905 133.11412095 204.88587905 132 206 C129.96727594 206.09900399 127.93105332 206.12632315 125.8959198 206.12698364 C125.25076316 206.12854363 124.60560651 206.13010362 123.94089967 206.13171089 C121.76160247 206.13572419 119.58237399 206.13252944 117.40307617 206.12939453 C115.8455959 206.13074889 114.28811594 206.13252902 112.7306366 206.13470459 C108.47634028 206.13928797 104.22206806 206.13748222 99.96777129 206.1343255 C95.48692113 206.13179091 91.00607302 206.13414396 86.52522278 206.13571167 C78.96139153 206.13753672 71.39757 206.13512516 63.83374023 206.13037109 C55.18492461 206.12499655 46.53613282 206.12663922 37.88731784 206.1321975 C30.41418325 206.13680248 22.94105568 206.13734182 15.46792012 206.13475883 C11.02789221 206.13322697 6.58787527 206.13291295 2.14784813 206.13629532 C-21.25184554 206.1517435 -44.61297538 205.78262962 -68 205 C-66.29966161 198.60458412 -64.52112781 192.26776624 -62.40307617 185.99804688 C-62.04071948 184.91291416 -62.04071948 184.91291416 -61.67104244 183.80585957 C-60.88114893 181.44254289 -60.08704665 179.08066362 -59.29296875 176.71875 C-58.72958324 175.03523308 -58.1665104 173.3516115 -57.60372925 171.66789246 C-56.41530443 168.1138697 -55.22521373 164.56041147 -54.03372192 161.00741577 C-50.94471405 151.79519743 -47.86699638 142.57920419 -44.7890625 133.36328125 C-44.48765162 132.46109171 -44.18624073 131.55890217 -43.87569618 130.62937355 C-39.2119647 116.66778347 -34.59437114 102.69254171 -30.0625 88.6875 C-29.015848 85.4556569 -27.96900015 82.22387733 -26.921875 78.9921875 C-26.67889679 78.24215958 -26.43591858 77.49213165 -26.18557739 76.71937561 C-19.58595703 56.37458853 -12.7542428 36.10534504 -5.8125 15.875 C-5.57367096 15.17807037 -5.33484192 14.48114075 -5.08877563 13.76309204 C-4.4215755 11.8180286 -3.75226432 9.87370764 -3.08203125 7.9296875 C-2.70280518 6.82866699 -2.3235791 5.72764648 -1.93286133 4.59326172 C-1 2 -1 2 0 0 Z " fill="#502772" transform="translate(258,2)"/>
<path d="M0 0 C29.37 0 58.74 0 89 0 C92.06519112 6.13038223 95.02432346 12.1512424 97.6875 18.44140625 C98.02321518 19.22714523 98.35893036 20.01288422 98.70481873 20.82243347 C99.4285883 22.51747508 100.15095783 24.21311508 100.87203979 25.90930176 C102.0239368 28.61880437 103.17959023 31.32667788 104.33618164 34.03417969 C106.00302574 37.93706797 107.66836928 41.84059124 109.33251953 45.74462891 C113.5589922 55.65817761 117.79561339 65.56738021 122.03637695 75.474823 C123.41975377 78.70851753 124.80076839 81.94321383 126.18164062 85.17797852 C127.03635173 87.17598962 127.89116438 89.17395728 128.74609375 91.171875 C129.13284775 92.07947067 129.51960175 92.98706635 129.91807556 93.92216492 C131.81835561 98.35650341 133.78319857 102.71462244 136 107 C136.47083008 106.52694931 136.94166016 106.05389862 137.42675781 105.56651306 C142.3558022 100.61523601 147.28844961 95.66756916 152.22314453 90.72192383 C154.06097352 88.87908581 155.89790149 87.03534875 157.73388672 85.19067383 C160.38268823 82.52965592 163.03478125 79.87195597 165.6875 77.21484375 C166.49928711 76.39789536 167.31107422 75.58094696 168.14746094 74.73924255 C172.35346656 70.53282975 176.64018555 66.50771518 181.1484375 62.62794495 C184.02871698 60.09552359 186.71677808 57.38829713 189.40625 54.65625 C189.97525024 54.08346313 190.54425049 53.51067627 191.13049316 52.92053223 C192.92282982 51.11614749 194.71184316 49.3085264 196.5 47.5 C209.95576844 33.89095185 209.95576844 33.89095185 216.16210938 28.61523438 C219.78652783 25.42990593 223.12060971 21.94094567 226.5 18.5 C231.26794467 13.64520752 236.07650039 8.94292357 241.25585938 4.52539062 C243.00790514 3.0614749 243.00790514 3.0614749 244.37528706 1.42721081 C247.20316712 -1.05690862 250.92404957 -0.38766822 254.51049805 -0.34057617 C255.81325684 -0.34123329 255.81325684 -0.34123329 257.14233398 -0.34190369 C260.01569019 -0.33981212 262.88846436 -0.31646374 265.76171875 -0.29296875 C267.75282981 -0.28737411 269.74394499 -0.28310339 271.73506165 -0.28010559 C276.9778278 -0.26864648 282.22034497 -0.23917005 287.4630127 -0.20599365 C292.81189607 -0.17531579 298.16081965 -0.16160514 303.50976562 -0.14648438 C314.00661987 -0.11430144 324.50328923 -0.06309214 335 0 C333.61272571 2.89297867 332.35579237 4.86009766 329.98046875 7.03125 C329.37734863 7.58796387 328.77422852 8.14467773 328.15283203 8.71826172 C327.50427246 9.30623535 326.85571289 9.89420898 326.1875 10.5 C325.51315918 11.1202002 324.83881836 11.74040039 324.14404297 12.37939453 C322.10042619 14.25779294 320.05040189 16.12901459 318 18 C315.87215278 19.95525314 313.74837068 21.91488769 311.625 23.875 C311.11203369 24.34768311 310.59906738 24.82036621 310.07055664 25.30737305 C305.398674 29.61752479 300.75786989 33.96047089 296.125 38.3125 C295.0723999 39.29935791 295.0723999 39.29935791 293.99853516 40.30615234 C290.12985245 43.94667017 286.32802749 47.63741433 282.60571289 51.42773438 C280.90260905 53.09536228 279.1294229 54.64529825 277.3125 56.1875 C273.69860262 59.29615348 270.34713486 62.6111498 267 66 C263.17013581 69.87730019 259.27948679 73.56243623 255.125 77.09375 C252.30606068 79.62250439 249.66061163 82.30646001 247 85 C243.17011987 88.87727963 239.27948698 92.56243606 235.125 96.09375 C231.75145836 99.1200153 228.60796464 102.37210706 225.42407227 105.59545898 C222.0941767 108.95060894 218.66068601 112.09725452 215.05859375 115.16015625 C211.9300108 117.95629016 209.01602391 120.96326184 206.07055664 123.94897461 C202.82619226 127.22037066 199.46373664 130.26971038 195.9609375 133.2578125 C192.98956362 135.89771838 190.23543112 138.74194023 187.46875 141.59375 C184.78204034 144.21244169 181.97805526 146.65426844 179.14550781 149.11279297 C173.27404264 154.27738398 167.64949566 159.7217788 161.98681641 165.11279297 C160.294399 166.72036074 158.59224194 168.31654553 156.88671875 169.91015625 C156.03722656 170.72355469 155.18773437 171.53695313 154.3125 172.375 C153.60738281 173.04273438 152.90226562 173.71046875 152.17578125 174.3984375 C144.7342737 183.29618262 141.51591692 193.46652799 138.05078125 204.3203125 C137.50716678 205.99116174 136.96240171 207.66163701 136.41654968 209.33175659 C134.99151207 213.70141128 133.5809465 218.07559697 132.17382812 222.4510498 C130.46320317 227.76159963 128.73627925 233.06686599 127.01093578 238.37264824 C125.66860442 242.50121871 124.32889912 246.63057196 122.99763489 250.76272583 C122.75134842 251.52504517 122.50506195 252.2873645 122.25131226 253.07278442 C121.79708953 254.4789273 121.34422909 255.88551144 120.8931427 257.29266357 C119.39309675 261.92837516 117.71547257 266.42540648 116 271 C92.9 271 69.8 271 46 271 C47.87508513 264.12468784 49.77672789 257.36247245 52.00390625 250.609375 C52.28369827 249.75382019 52.5634903 248.89826538 52.85176086 248.01678467 C53.4468609 246.19776438 54.04306809 244.37910596 54.64031982 242.56079102 C55.57632408 239.70786441 56.50688264 236.85321178 57.43603516 233.99804688 C60.05905078 225.94429492 62.6868185 217.89299532 65.40177917 209.86968994 C66.35024892 207.06315322 67.2872725 204.2528667 68.22286987 201.4420166 C68.85489935 199.55985889 69.50444304 197.68361066 70.15454102 195.80761719 C74.85784246 181.64280273 72.69503242 172.45536976 67 159 C66.62554749 158.10331604 66.25109497 157.20663208 65.86529541 156.28277588 C63.2136218 149.93563217 60.51713444 143.60832605 57.80395508 137.28726196 C55.23348471 131.29863195 52.6743912 125.30513751 50.11328125 119.3125 C49.59605499 118.10322342 49.07882874 116.89394684 48.54592896 115.64802551 C44.05580391 105.14561305 39.60749888 94.62588981 35.17388916 84.09951782 C29.13335296 69.75823024 23.06884503 55.42772457 16.9375 41.125 C16.63141815 40.41075867 16.3253363 39.69651733 16.00997925 38.96063232 C12.98130857 31.89668391 9.93656099 24.84032916 6.8515625 17.80078125 C6.375979 16.71458496 5.90039551 15.62838867 5.41040039 14.50927734 C4.54081171 12.52754129 3.66784878 10.5472808 2.79077148 8.56884766 C2.41766846 7.71983887 2.04456543 6.87083008 1.66015625 5.99609375 C1.33668213 5.26575928 1.01320801 4.5354248 0.67993164 3.78295898 C0 2 0 2 0 0 Z " fill="#7C559E" transform="translate(1665,982)"/>
<path d="M0 0 C2.22834112 0.00310679 4.45669348 0.00135338 6.68502808 -0.00486755 C12.70578506 -0.00801158 18.72410987 0.0564559 24.7443037 0.13344598 C31.04622607 0.2024168 37.3482101 0.20868815 43.65045166 0.22172546 C54.21888289 0.25198204 64.78652129 0.32059255 75.35449219 0.41894531 C86.23400473 0.52009149 97.11327555 0.59786627 107.99316406 0.64453125 C109.00102654 0.64886619 109.00102654 0.64886619 110.02924988 0.6532887 C113.40040086 0.6676453 116.77155354 0.6815458 120.14270735 0.69521964 C148.05962279 0.81006169 175.97554955 1.00342483 203.89160156 1.2487793 C203.47712517 1.73177238 203.06264877 2.21476547 202.63561249 2.71239471 C202.09324196 3.34472267 201.55087143 3.97705063 200.99206543 4.62854004 C200.45383904 5.25590813 199.91561264 5.88327621 199.36107635 6.52965546 C198.32829389 7.73789732 197.3033309 8.95284564 196.28417969 10.17260742 C189.52236656 18.15678562 181.85523254 25.34213181 174.42529297 32.69458008 C172.50568815 34.59593497 170.58922257 36.50041594 168.67285156 38.4050293 C167.80847473 39.25695862 167.80847473 39.25695862 166.92663574 40.12609863 C161.24007431 45.77896558 156.04796742 51.68513172 151.27124023 58.12695312 C144.88029726 66.17329813 138.66369034 72.59882154 128.06982422 73.87915039 C119.90688451 74.62389303 111.70585191 74.34488341 103.52832031 74.01696777 C99.61320228 73.88104902 95.697362 73.85631186 91.78027344 73.82104492 C84.14595904 73.73650036 76.52138812 73.53268483 68.89160156 73.2487793 C68.74220123 74.12011253 68.74220123 74.12011253 68.58978271 75.00904846 C67.29816624 82.01930682 65.28772997 88.64679488 63.03222656 95.40112305 C62.46123482 97.13480133 62.46123482 97.13480133 61.87870789 98.90350342 C60.85153975 102.01924981 59.81938725 105.13328915 58.78507614 108.24666977 C57.69705853 111.52625438 56.61590645 114.80809953 55.53442383 118.08984375 C54.22304456 122.06811989 52.91126875 126.0462614 51.59669495 130.02348328 C48.25067509 140.14725279 44.93735401 150.28130023 41.64529419 160.42272949 C40.26353815 164.67799045 38.87822109 168.93209187 37.49316406 173.1862793 C37.21164993 174.05101868 36.9301358 174.91575806 36.64009094 175.80670166 C36.04512479 177.63424642 35.4501276 179.46178106 34.85510254 181.28930664 C34.18141046 183.35860739 33.50783609 185.42794646 32.83435059 187.49731445 C16.23714098 238.48994923 16.23714098 238.48994923 9.32910156 258.6237793 C9.10090729 259.29130219 8.87271301 259.95882507 8.63760376 260.64657593 C5.06592556 271.0744553 5.06592556 271.0744553 3.89160156 272.2487793 C1.74416608 272.34303525 -0.40640869 272.36620578 -2.5559082 272.36230469 C-3.5656218 272.36252373 -3.5656218 272.36252373 -4.59573364 272.36274719 C-6.83045628 272.36204808 -9.06509653 272.35425582 -11.29980469 272.34643555 C-12.84537205 272.34457136 -14.39094001 272.34314746 -15.93650818 272.34214783 C-20.0119692 272.3383227 -24.08739481 272.32849247 -28.1628418 272.31744385 C-32.31851726 272.30722962 -36.47419843 272.30265018 -40.62988281 272.29760742 C-48.78940431 272.28687019 -56.94889697 272.26979383 -65.10839844 272.2487793 C-64.48991138 266.55019619 -63.02807948 261.46584827 -61.18774414 256.04858398 C-60.88821838 255.1510289 -60.58869263 254.25347382 -60.28009033 253.32872009 C-59.28704284 250.35746058 -58.28556295 247.38911375 -57.28417969 244.4206543 C-56.57870354 242.31425941 -55.87381491 240.20766767 -55.16947937 238.10089111 C-53.30424549 232.52614463 -51.43212713 226.95373566 -49.55822754 221.38189697 C-46.61492572 212.62670342 -43.68151444 203.86818692 -40.74817467 195.10965157 C-40.02074664 192.93771295 -39.2931165 190.76584201 -38.56528664 188.59403801 C-31.79052069 168.37354717 -25.15765314 148.10884319 -18.58926392 127.82049561 C-16.49253954 121.34490506 -14.38494907 114.87286166 -12.27636719 108.40112305 C-11.93370316 107.34939911 -11.59103912 106.29767517 -11.23799133 105.21408081 C-10.58252227 103.20257901 -9.92694225 101.19111337 -9.27124023 99.1796875 C-8.59715651 97.11086634 -7.92369358 95.04184284 -7.25073242 92.97265625 C-6.2399045 89.86500052 -5.22710928 86.75799235 -4.21386719 83.65112305 C-3.91296677 82.72452377 -3.61206635 81.7979245 -3.30204773 80.84324646 C-3.02697891 80.00117142 -2.7519101 79.15909637 -2.46850586 78.29150391 C-2.22871506 77.5551622 -1.98892426 76.8188205 -1.74186707 76.06016541 C-1.10839844 74.2487793 -1.10839844 74.2487793 -0.10839844 72.2487793 C-29.47839844 72.2487793 -58.84839844 72.2487793 -89.10839844 72.2487793 C-87.4126719 68.85732623 -86.52585215 67.4547082 -83.92089844 64.9987793 C-81.4131612 62.56844136 -79.06143606 60.09372272 -76.79589844 57.4362793 C-74.03221815 54.22544174 -71.12220248 51.22610764 -68.10839844 48.2487793 C-65.25976836 45.43421356 -62.50310532 42.62142678 -59.92089844 39.5612793 C-55.75759022 34.68255774 -51.14086403 30.25405022 -46.58496094 25.74707031 C-43.40519662 22.58903649 -40.29942197 19.43879261 -37.42089844 15.9987793 C-36.94122746 15.45769689 -36.46155647 14.91661448 -35.96735001 14.35913563 C-34.57982613 12.7839629 -33.24421763 11.16277768 -31.93716049 9.52022076 C-22.57048642 -0.81258111 -13.30872281 -0.26058225 0 0 Z " fill="#502772" transform="translate(785.1083984375,980.751220703125)"/>
<path d="M0 0 C1.24132187 0.00222061 2.48264374 0.00444122 3.76158142 0.00672913 C4.44447739 0.0065831 5.12737335 0.00643707 5.83096313 0.00628662 C8.09815092 0.00698575 10.36525752 0.01477811 12.63243103 0.02259827 C14.20041865 0.02446245 15.76840685 0.02588635 17.33639526 0.02688599 C21.47103981 0.03071117 25.60564944 0.04054146 29.74028015 0.05158997 C33.95627876 0.06180407 38.172283 0.0663836 42.38829041 0.07142639 C50.66630125 0.08216373 58.94428368 0.09924015 67.22227478 0.12025452 C65.36121616 7.1791921 63.31254183 14.13222146 60.98277283 21.04994202 C60.51841576 22.44104187 60.51841576 22.44104187 60.04467773 23.86024475 C59.02721605 26.90618082 58.00555826 29.95069238 56.98399353 32.99525452 C56.25921948 35.16328169 55.53476428 37.33141548 54.81060791 39.49964905 C52.90002817 45.21811577 50.98612877 50.93546516 49.07121277 56.65248108 C45.68414168 66.76545765 42.30134698 76.8798636 38.92149353 86.99525452 C38.55209215 88.10063065 38.18269077 89.20600677 37.80209541 90.34487915 C31.28673804 109.84934117 24.88841826 129.39023769 18.54790306 148.95214081 C15.99896986 156.81486569 13.43252405 164.6718003 10.85899353 172.52650452 C10.44859833 173.77911072 10.03820312 175.03171692 9.6153717 176.32228088 C8.59080743 179.4478462 7.56580796 182.57326804 6.54032516 185.6985321 C5.89077029 187.67817432 5.24141259 189.65788115 4.59205627 191.6375885 C-4.10941932 218.16165082 -12.9271276 244.64542337 -21.77772522 271.12025452 C-44.54772522 271.12025452 -67.31772522 271.12025452 -90.77772522 271.12025452 C-89.65276195 263.24551165 -89.65276195 263.24551165 -88.34510803 259.29237366 C-87.90504929 257.94740059 -87.90504929 257.94740059 -87.45610046 256.57525635 C-87.13426788 255.61170731 -86.8124353 254.64815826 -86.48085022 253.65541077 C-86.14024567 252.61979507 -85.79964111 251.58417938 -85.44871521 250.5171814 C-84.31379177 247.07056334 -83.17068582 243.62671481 -82.02772522 240.18275452 C-81.21771813 237.72738581 -80.40832374 235.27181491 -79.59950256 232.8160553 C-78.10129347 228.26839079 -76.60104191 223.72140935 -75.09825706 219.17525482 C-72.25837548 210.58391952 -69.43262124 201.98800693 -66.61366272 193.38978577 C-66.40026371 192.73894768 -66.1868647 192.08810959 -65.96699905 191.41754913 C-65.10070612 188.77540795 -64.23447812 186.1332455 -63.36837196 183.49104309 C-61.15631111 176.74284607 -58.94224374 169.99530803 -56.72777176 163.24790192 C-56.05956475 161.21189455 -55.39140756 159.17587084 -54.72325134 157.1398468 C-52.16261141 149.33739996 -49.60010057 141.53557052 -47.03630066 133.73416138 C-36.62183297 102.04082079 -26.28415217 70.32367742 -16.02173805 38.58080101 C-15.07092242 35.63986372 -14.11979718 32.69902658 -13.16870499 29.75817871 C-12.52102669 27.75479047 -11.87399737 25.75119355 -11.22703552 23.74757385 C-10.08128298 20.20381245 -8.93093673 16.66159495 -7.77772522 13.12025452 C-7.39946594 11.95414642 -7.02120667 10.78803833 -6.63148499 9.58659363 C-6.27304504 8.49305573 -5.9146051 7.39951782 -5.54530334 6.27284241 C-5.22823425 5.30206253 -4.91116516 4.33128265 -4.58448792 3.33108521 C-3.42300554 0.14819028 -3.42300554 0.14819028 0 0 Z " fill="#502772" transform="translate(90.77772521972656,981.8797454833984)"/>
</svg>
