<?xml version="1.0" encoding="UTF-8"?>
<svg version="1.1" xmlns="http://www.w3.org/2000/svg" width="600" height="450">
<path d="M0 0 C165.66 0 331.32 0 502 0 C502 131.34 502 262.68 502 398 C336.34 398 170.68 398 0 398 C0 266.66 0 135.32 0 0 Z " fill="#EFEEEA" transform="translate(49,26)"/>
<path d="M0 0 C0.54914063 0.49628906 1.09828125 0.99257812 1.6640625 1.50390625 C3.38955013 2.63515256 3.38955013 2.63515256 5.69140625 2.34765625 C9.08571318 1.19645754 11.77595067 -0.65619619 14.6875 -2.6875 C39.69929952 -19.40100781 70.3584224 -24.27420909 99.875 -19.5625 C130.32947079 -12.58266453 159.01040878 5.13737481 176.01147461 31.75195312 C177.16234009 33.63143282 178.27679674 35.52681288 179.375 37.4375 C179.91761475 38.37432617 179.91761475 38.37432617 180.47119141 39.33007812 C189.84439728 55.86354846 194.56253639 73.47251477 194.56030273 92.4206543 C194.56246841 94.47010742 194.58059956 96.51900268 194.59960938 98.56835938 C194.73445109 129.39610938 182.3662653 156.21352617 161.375 178.4375 C160.62734375 179.26121094 159.8796875 180.08492187 159.109375 180.93359375 C141.30407915 199.82961136 113.92130154 212.25351705 88.00439453 213.61450195 C57.20179327 214.15433249 57.20179327 214.15433249 43.375 209.4375 C42.24964844 209.06367188 41.12429688 208.68984375 39.96484375 208.3046875 C28.7120152 204.25420571 17.83885894 199.13490949 8.55859375 191.52734375 C6.40679203 190.16086905 6.40679203 190.16086905 4.00390625 191.0078125 C0.89154207 192.70042066 -2.12342663 194.49200362 -5.125 196.375 C-7.29166667 197.72916667 -9.45833333 199.08333333 -11.625 200.4375 C-12.41777344 200.95441406 -13.21054687 201.47132813 -14.02734375 202.00390625 C-17.45670444 203.8965008 -20.99146543 205.1618811 -24.6875 206.4375 C-25.43612305 206.69877686 -26.18474609 206.96005371 -26.95605469 207.22924805 C-33.09515483 209.33406362 -39.27879874 211.06774538 -45.625 212.4375 C-46.355979 212.60878418 -47.08695801 212.78006836 -47.84008789 212.95654297 C-77.68493258 218.11077669 -108.92529412 210.66721843 -133.796875 193.75048828 C-158.9690355 175.67144459 -177.98987773 147.92671068 -183.19165039 117.0769043 C-185.28283729 99.51446874 -185.48836599 79.20818348 -179.625 62.4375 C-179.41069336 61.77733887 -179.19638672 61.11717773 -178.97558594 60.43701172 C-169.27663553 30.57073867 -147.63633563 5.40126659 -119.6875 -8.875 C-112.23235786 -12.53522439 -104.5883723 -15.22201065 -96.625 -17.5625 C-95.84511719 -17.79710938 -95.06523437 -18.03171875 -94.26171875 -18.2734375 C-63.93829795 -26.65947371 -24.70530001 -19.9027744 0 0 Z " fill="#F69F1A" transform="translate(294.625,103.5625)"/>
<path d="M0 0 C1.5390625 1.4453125 1.5390625 1.4453125 2.5390625 3.4453125 C2.07757813 3.83460937 1.61609375 4.22390625 1.140625 4.625 C-7.89990276 12.37912856 -16.11581502 20.30470579 -22.4609375 30.4453125 C-23.10804688 31.47140625 -23.75515625 32.4975 -24.421875 33.5546875 C-28.28352865 39.97598131 -31.50321711 46.48103801 -34.2734375 53.4453125 C-34.55123047 54.13173828 -34.82902344 54.81816406 -35.11523438 55.52539062 C-39.60653368 67.31641728 -40.93962242 78.98249954 -40.79711914 91.47851562 C-40.77330843 93.70739485 -40.77661574 95.93508611 -40.78320312 98.1640625 C-40.76838089 105.79232718 -40.36295911 113.02193909 -38.4609375 120.4453125 C-38.20054687 121.66476563 -37.94015625 122.88421875 -37.671875 124.140625 C-32.226058 146.48374334 -18.1375983 169.91186347 0.17578125 184.078125 C1.5390625 185.4453125 1.5390625 185.4453125 1.5390625 188.4453125 C-0.62194773 190.07281396 -2.72047942 191.48517128 -5.0234375 192.8828125 C-5.63251953 193.26501953 -6.24160156 193.64722656 -6.86914062 194.04101562 C-8.72169156 195.19567435 -10.58850629 196.32323147 -12.4609375 197.4453125 C-13.03481201 197.79795166 -13.60868652 198.15059082 -14.19995117 198.51391602 C-18.51261359 201.09315964 -22.89982291 202.88640054 -27.6484375 204.5078125 C-28.38803711 204.76457764 -29.12763672 205.02134277 -29.88964844 205.28588867 C-35.99599518 207.36783821 -42.15257029 209.08372393 -48.4609375 210.4453125 C-49.1919165 210.61659668 -49.92289551 210.78788086 -50.67602539 210.96435547 C-80.52087008 216.11858919 -111.76123162 208.67503093 -136.6328125 191.75830078 C-161.804973 173.67925709 -180.82581523 145.93452318 -186.02758789 115.0847168 C-188.11877479 97.52228124 -188.32430349 77.21599598 -182.4609375 60.4453125 C-182.24663086 59.78515137 -182.03232422 59.12499023 -181.81152344 58.44482422 C-172.11257303 28.57855117 -150.47227313 3.40907909 -122.5234375 -10.8671875 C-115.06829536 -14.52741189 -107.4243098 -17.21419815 -99.4609375 -19.5546875 C-98.68105469 -19.78929688 -97.90117187 -20.02390625 -97.09765625 -20.265625 C-64.9605899 -29.15323052 -25.86594909 -20.82838598 0 0 Z " fill="#EA011B" transform="translate(297.4609375,105.5546875)"/>
<path d="M0 0 C2.82087928 0.99591066 4.24294406 2.08747394 6.36914062 4.17651367 C7.41920288 5.20615234 7.41920288 5.20615234 8.49047852 6.2565918 C9.58477173 7.37324219 9.58477173 7.37324219 10.70117188 8.51245117 C11.45712646 9.28008789 12.21308105 10.04772461 12.99194336 10.83862305 C28.54793389 27.00605714 37.36279702 46.22282733 42.51367188 67.88745117 C42.69325439 68.63357666 42.87283691 69.37970215 43.05786133 70.1484375 C43.63493277 73.61612066 43.6953884 77.03446229 43.71679688 80.53979492 C43.72249695 81.27637833 43.72819702 82.01296173 43.73406982 82.77186584 C43.74349182 84.33096903 43.75004264 85.89009188 43.75390625 87.44921875 C43.76351352 89.7864274 43.79452064 92.12271785 43.82617188 94.4597168 C43.89349396 104.04038742 42.97811743 112.58196747 40.51367188 121.88745117 C40.23386475 122.99233887 39.95405762 124.09722656 39.66577148 125.2355957 C35.32880824 141.77955036 25.40272099 156.22935224 14.51367188 169.13745117 C14.02729248 169.71648193 13.54091309 170.2955127 13.03979492 170.89208984 C9.56570875 174.92365239 5.87038746 178.79676569 1.51367188 181.88745117 C0.85367188 181.88745117 0.19367188 181.88745117 -0.48632812 181.88745117 C-0.81632812 182.54745117 -1.14632812 183.20745117 -1.48632812 183.88745117 C-2.14632812 183.04182617 -2.80632812 182.19620117 -3.48632812 181.32495117 C-5.53375307 178.84739494 -7.68081377 176.84768087 -10.17382812 174.82495117 C-19.9555306 166.42484509 -26.48984752 155.12923339 -32.48632812 143.88745117 C-33.03160156 142.91291992 -33.576875 141.93838867 -34.13867188 140.93432617 C-46.56881478 117.78199894 -49.16733466 84.62705084 -41.75195312 59.43041992 C-41.33429688 58.26124023 -40.91664063 57.09206055 -40.48632812 55.88745117 C-40.26138672 55.24372559 -40.03644531 54.6 -39.8046875 53.93676758 C-33.40608351 35.89993139 -23.46312865 20.62210219 -10.17382812 6.94995117 C-9.4920752 6.23299072 -8.81032227 5.51603027 -8.10791016 4.77734375 C-7.45290527 4.12403076 -6.79790039 3.47071777 -6.12304688 2.79760742 C-5.25232544 1.91794312 -5.25232544 1.91794312 -4.36401367 1.02050781 C-2.48632812 -0.11254883 -2.48632812 -0.11254883 0 0 Z " fill="#FE5E01" transform="translate(300.486328125,109.112548828125)"/>
<path d="M0 0 C2.64 0 5.28 0 8 0 C8 14.52 8 29.04 8 44 C5.69 44 3.38 44 1 44 C0.67 43.34 0.34 42.68 0 42 C-0.495 42.495 -0.99 42.99 -1.5 43.5 C-4.98050282 45.58830169 -8.0911327 45.53335946 -12 45 C-18.04957425 43.08430149 -20.93884632 40.56221125 -24.078125 35.13671875 C-25.78637072 31.17735261 -25.61932535 27.21520419 -25 23 C-22.87267608 17.76959614 -20.14351609 14.45317554 -15 12 C-11.95703125 11.671875 -11.95703125 11.671875 -8.8125 11.75 C-7.24435547 11.77320313 -7.24435547 11.77320313 -5.64453125 11.796875 C-3 12 -3 12 -1 13 C-0.67 8.71 -0.34 4.42 0 0 Z " fill="#141414" transform="translate(463,332)"/>
<path d="M0 0 C1.13824219 0.01289063 2.27648437 0.02578125 3.44921875 0.0390625 C6.3125 0.375 6.3125 0.375 8.3125 2.375 C8.6425 1.715 8.9725 1.055 9.3125 0.375 C11.9525 0.375 14.5925 0.375 17.3125 0.375 C17.3125 10.935 17.3125 21.495 17.3125 32.375 C14.6725 32.375 12.0325 32.375 9.3125 32.375 C9.3125 31.715 9.3125 31.055 9.3125 30.375 C8.673125 30.87 8.03375 31.365 7.375 31.875 C3.24851292 33.89613653 -0.16869314 34.09353819 -4.6875 33.375 C-9.6585149 30.84259618 -13.18180567 27.38638866 -15.6875 22.375 C-16.1947965 16.81968752 -16.45010422 11.95669764 -14 6.875 C-9.48863086 1.99784417 -6.82475079 -0.17120241 0 0 Z " fill="#161615" transform="translate(391.6875,343.625)"/>
<path d="M0 0 C0.99 0.66 1.98 1.32 3 2 C3.33 1.34 3.66 0.68 4 0 C6.31 0 8.62 0 11 0 C11 10.56 11 21.12 11 32 C8.69 32 6.38 32 4 32 C3.67 31.34 3.34 30.68 3 30 C2.525625 30.495 2.05125 30.99 1.5625 31.5 C-2.27033082 33.74360829 -5.66358709 33.6383552 -10 33 C-15.27657953 31.33205538 -18.44023572 27.96606739 -21.12109375 23.21484375 C-23.09599751 18.23808627 -22.60023463 13.80070388 -20.9375 8.8125 C-15.29102374 0.6160022 -10.04700042 -1.5276141 0 0 Z " fill="#131313" transform="translate(207,344)"/>
<path d="M0 0 C3.66666667 0 7.33333333 0 11 0 C11.83273438 -0.03480469 12.66546875 -0.06960938 13.5234375 -0.10546875 C22.92090022 -0.37580672 22.92090022 -0.37580672 27 3 C27.52851563 2.51789063 28.05703125 2.03578125 28.6015625 1.5390625 C33.22395955 -1.42710108 38.74171752 -0.93292109 44 0 C47.80559346 2.59472281 49.56512288 5.69536864 51 10 C51.08178114 11.70016844 51.10749501 13.40336297 51.09765625 15.10546875 C51.09443359 16.08837891 51.09121094 17.07128906 51.08789062 18.08398438 C51.07532227 19.62022461 51.07532227 19.62022461 51.0625 21.1875 C51.05798828 22.22326172 51.05347656 23.25902344 51.04882812 24.32617188 C51.0370401 26.88417266 51.02058515 29.44205733 51 32 C48.03 32 45.06 32 42 32 C41.67 24.41 41.34 16.82 41 9 C38.04335481 7.5216774 35.25770263 7.93967217 32 8 C30.27428639 11.01545747 29.71902341 13.3053913 29.5859375 16.765625 C29.54726562 17.65507812 29.50859375 18.54453125 29.46875 19.4609375 C29.42234375 20.84152344 29.42234375 20.84152344 29.375 22.25 C29.33632812 23.18585938 29.29765625 24.12171875 29.2578125 25.0859375 C29.16375156 27.39043054 29.07810601 29.69492013 29 32 C26.36 32 23.72 32 21 32 C20.98018066 31.37955811 20.96036133 30.75911621 20.93994141 30.11987305 C20.84468155 27.30865463 20.73500698 24.49817834 20.625 21.6875 C20.5940625 20.71103516 20.563125 19.73457031 20.53125 18.72851562 C20.49257812 17.79072266 20.45390625 16.85292969 20.4140625 15.88671875 C20.3826416 15.02264404 20.3512207 14.15856934 20.31884766 13.26831055 C20.12811963 10.72257555 20.12811963 10.72257555 18 8 C14.41642759 7.74984127 14.41642759 7.74984127 11 8 C9.27428639 11.01545747 8.71902341 13.3053913 8.5859375 16.765625 C8.52792969 18.09980469 8.52792969 18.09980469 8.46875 19.4609375 C8.42234375 20.84152344 8.42234375 20.84152344 8.375 22.25 C8.31699219 23.65378906 8.31699219 23.65378906 8.2578125 25.0859375 C8.16375156 27.39043054 8.07810601 29.69492013 8 32 C5.36 32 2.72 32 0 32 C0 21.44 0 10.88 0 0 Z " fill="#191818" transform="translate(130,344)"/>
<path d="M0 0 C3.77760733 1.67182245 5.60460037 4.40690056 7.875 7.8125 C9 11 9 11 9 19 C1.41 19 -6.18 19 -14 19 C-10.94734776 24.91719768 -10.94734776 24.91719768 -8 25.65625 C-7.01 25.57890625 -7.01 25.57890625 -6 25.5 C-5.30519531 25.4484375 -4.61039062 25.396875 -3.89453125 25.34375 C-1.65971974 24.93825843 0.05169238 24.15455266 2 23 C2.99 23 3.98 23 5 23 C5.66 24.98 6.32 26.96 7 29 C1.10867324 33.18938792 -3.82577589 34.03545503 -11 33 C-14.92456043 31.71349585 -17.52058779 29.47941221 -20.4375 26.5625 C-22.83607311 21.0937533 -22.74115843 15.87686233 -22 10 C-17.34901014 0.18124362 -10.13102106 -1.46549361 0 0 Z " fill="#131313" transform="translate(308,344)"/>
<path d="M0 0 C1.00353516 -0.01836914 1.00353516 -0.01836914 2.02734375 -0.03710938 C6.05686909 -0.0489842 9.12575151 0.41049444 12.75 2.1875 C11.875 6.9375 11.875 6.9375 10.75 9.1875 C10.13125 9.0225 9.5125 8.8575 8.875 8.6875 C4.49529271 7.98674683 0.17571011 8.11015749 -4.25 8.1875 C-4.58 9.1775 -4.91 10.1675 -5.25 11.1875 C-4.44175781 11.29707031 -3.63351563 11.40664063 -2.80078125 11.51953125 C-1.73214844 11.67808594 -0.66351563 11.83664062 0.4375 12 C2.02111328 12.22623047 2.02111328 12.22623047 3.63671875 12.45703125 C7.86353816 13.4487693 10.69452975 15.13202975 13.75 18.1875 C14.31029149 21.24256306 14.29484052 24.13094468 13.75 27.1875 C11.4375 29.625 11.4375 29.625 8.75 31.1875 C7.76 31.8475 6.77 32.5075 5.75 33.1875 C-1.97409859 34.17160738 -7.65188345 33.24787942 -14.25 29.1875 C-13.4375 26.75 -13.4375 26.75 -12.25 24.1875 C-9.25 23.1875 -9.25 23.1875 -6.5 24.125 C-2.91482599 25.29707612 0.00292435 25.33738303 3.75 25.1875 C4.41 23.8675 5.07 22.5475 5.75 21.1875 C4.55503906 21.04054688 4.55503906 21.04054688 3.3359375 20.890625 C-2.85059901 20.01758578 -7.46849025 19.32285979 -12.25 15.1875 C-13.81935594 12.04878812 -13.60201103 9.64894178 -13.25 6.1875 C-10.8125 3.3125 -10.8125 3.3125 -8.25 1.1875 C-6.29350459 -0.76899541 -2.66425221 0.00250871 0 0 Z " fill="#161615" transform="translate(238.25,343.8125)"/>
<path d="M0 0 C2.64 0 5.28 0 8 0 C8 2.97 8 5.94 8 9 C11.63 9 15.26 9 19 9 C19 11.31 19 13.62 19 16 C15.37 16 11.74 16 8 16 C8.33 21.94 8.66 27.88 9 34 C13.95 33.505 13.95 33.505 19 33 C19.33 35.31 19.66 37.62 20 40 C15.68846464 42.42889662 11.86590548 42.85027068 7 42 C3.92938032 40.28631391 1.59549274 38.19098548 0 35 C-0.08308638 33.62451844 -0.10736016 32.24514204 -0.09765625 30.8671875 C-0.09443359 30.06152344 -0.09121094 29.25585938 -0.08789062 28.42578125 C-0.07951172 27.58402344 -0.07113281 26.74226563 -0.0625 25.875 C-0.05798828 25.02550781 -0.05347656 24.17601562 -0.04882812 23.30078125 C-0.03702874 21.20049091 -0.01909306 19.1002367 0 17 C-1.98 17 -3.96 17 -6 17 C-6 14.36 -6 11.72 -6 9 C-4.02 9 -2.04 9 0 9 C0 6.03 0 3.06 0 0 Z " fill="#181818" transform="translate(262,335)"/>
<path d="M0 0 C2.9296875 1.53515625 2.9296875 1.53515625 5 3 C4.1875 5.4375 4.1875 5.4375 3 8 C0 9 0 9 -3 8 C-4.954862 7.7684012 -4.954862 7.7684012 -7 7.75 C-7.680625 7.72421875 -8.36125 7.6984375 -9.0625 7.671875 C-11.6446476 8.10917419 -12.47537625 8.89078125 -14 11 C-14.74591019 14.97087484 -14.44636548 18.77993434 -13.0625 22.5625 C-9.67484275 24.92359445 -5.99439449 24.42228434 -2 24 C-0.65983059 23.69531191 0.67659518 23.37079452 2 23 C5 26.625 5 26.625 5 30 C-0.46290903 33.54350856 -5.68712998 33.94782468 -12 33 C-16.42286594 31.30335962 -19.22297056 29.06841548 -22 25.25 C-23.9780711 18.82126893 -23.68843061 12.19507923 -21 6 C-15.98299414 -1.38660146 -8.23068989 -1.25503427 0 0 Z " fill="#151515" transform="translate(368,344)"/>
<path d="M0 0 C6.6 0 13.2 0 20 0 C19.67 2.31 19.34 4.62 19 7 C18.04287109 7.09087891 18.04287109 7.09087891 17.06640625 7.18359375 C16.24011719 7.26738281 15.41382813 7.35117187 14.5625 7.4375 C13.32693359 7.55931641 13.32693359 7.55931641 12.06640625 7.68359375 C10.01337975 7.78930815 10.01337975 7.78930815 9 9 C8.84259395 10.70563778 8.74906608 12.41727244 8.68359375 14.12890625 C8.64169922 15.16337891 8.59980469 16.19785156 8.55664062 17.26367188 C8.51732422 18.35228516 8.47800781 19.44089844 8.4375 20.5625 C8.39431641 21.65498047 8.35113281 22.74746094 8.30664062 23.87304688 C8.20017932 26.58189564 8.09816484 29.29083992 8 32 C5.36 32 2.72 32 0 32 C0 21.44 0 10.88 0 0 Z " fill="#191918" transform="translate(323,344)"/>
<path d="M0 0 C2.31 0 4.62 0 7 0 C7 0.66 7 1.32 7 2 C7.99 1.34 8.98 0.68 10 0 C12.48046875 -0.1953125 12.48046875 -0.1953125 15.1875 -0.125 C16.08855469 -0.10695313 16.98960937 -0.08890625 17.91796875 -0.0703125 C18.60503906 -0.04710937 19.29210937 -0.02390625 20 0 C19.67 2.31 19.34 4.62 19 7 C18.37351562 7.03738281 17.74703125 7.07476562 17.1015625 7.11328125 C15.87566406 7.21189453 15.87566406 7.21189453 14.625 7.3125 C13.81289063 7.37050781 13.00078125 7.42851562 12.1640625 7.48828125 C9.62078662 7.82990528 9.62078662 7.82990528 8 11 C7.63423946 13.31923274 7.63423946 13.31923274 7.5859375 15.88671875 C7.54726563 16.82451172 7.50859375 17.76230469 7.46875 18.72851562 C7.4378125 19.70498047 7.406875 20.68144531 7.375 21.6875 C7.33632813 22.67556641 7.29765625 23.66363281 7.2578125 24.68164062 C7.16354133 27.12090707 7.07793782 29.56016595 7 32 C4.69 32 2.38 32 0 32 C0 21.44 0 10.88 0 0 Z " fill="#0F0F0F" transform="translate(417,344)"/>
<path d="M0 0 C3.05264502 3.12896115 3.88339226 5.26148434 4.5625 9.5625 C4 13 4 13 2 15.9375 C-2.15080314 18.79117716 -4.0301078 18.7099846 -9 18 C-11.43119623 16.12984906 -12.64069173 14.71861655 -14 12 C-14.08227036 8.90310855 -13.78526925 5.99830076 -13 3 C-9.22201916 -0.77798084 -5.0353409 -0.71933441 0 0 Z " fill="#E9E8E5" transform="translate(460,351)"/>
<path d="M0 0 C5.01144641 7.83038502 5.01144641 7.83038502 4 13 C2.00366611 15.86972996 0.52770117 17.65210765 -2.97265625 18.44921875 C-6.53861836 18.64251389 -8.59842278 18.30890556 -11.4375 16.125 C-14.04191134 12.58300058 -14.43241556 10.41063875 -14 6 C-9.8160179 -0.27597315 -7.07039021 -0.11403855 0 0 Z " fill="#EBEAE6" transform="translate(207,351)"/>
<path d="M0 0 C3.23613354 1.74253345 3.82395315 2.47185944 5 6 C5.47925039 10.3132535 5.47260063 12.30586782 3 15.9375 C-1.16917409 18.80380719 -3.01097559 18.79190864 -8 18 C-10.78570637 15.84107756 -11.78058325 14.28450225 -12.375 10.8046875 C-12.5720674 7.07272365 -12.40702693 4.69533767 -10.5 1.4375 C-6.96741729 -0.59373506 -3.98295269 -0.686998 0 0 Z " fill="#EEEDE9" transform="translate(396,351)"/>
<path d="M0 0 C2.3125 1.25 2.3125 1.25 4 3 C4.33 4.32 4.66 5.64 5 7 C0.05 7 -4.9 7 -10 7 C-8.43630432 0.74521729 -6.52508202 -0.79898964 0 0 Z " fill="#DFDEDA" transform="translate(304,350)"/>
<path d="M0 0 C1.93166016 0.01740234 1.93166016 0.01740234 3.90234375 0.03515625 C5.19269531 0.04417969 6.48304688 0.05320312 7.8125 0.0625 C8.81152344 0.07410156 9.81054688 0.08570313 10.83984375 0.09765625 C10.83984375 1.08765625 10.83984375 2.07765625 10.83984375 3.09765625 C6.89475817 5.7277133 3.42298589 5.53414598 -1.16015625 5.09765625 C-3.16015625 3.09765625 -3.16015625 3.09765625 -4.16015625 1.09765625 C-3.16015625 0.09765625 -3.16015625 0.09765625 0 0 Z " fill="#E1E0DC" transform="translate(299.16015625,364.90234375)"/>
<path d="M0 0 C1.66611905 -0.042721 3.33382885 -0.04063832 5 0 C6 1 6 1 6.0625 3.5625 C6.041875 4.366875 6.02125 5.17125 6 6 C3.625 6.625 3.625 6.625 1 7 C0.34 6.34 -0.32 5.68 -1 5 C-0.625 2.375 -0.625 2.375 0 0 Z " fill="#5A5A58" transform="translate(482,371)"/>
<path d="M0 0 C3.3 0 6.6 0 10 0 C10 1.65 10 3.3 10 5 C7.03 5 4.06 5 1 5 C0.67 3.35 0.34 1.7 0 0 Z " fill="#F4BE6D" transform="translate(480,258)"/>
<path d="M0 0 C-0.33 0.99 -0.66 1.98 -1 3 C-1.66 3 -2.32 3 -3 3 C-2.67 6.63 -2.34 10.26 -2 14 C-5 11 -5 11 -5.375 7.5625 C-4.98567667 3.86392836 -4.36937785 0 0 0 Z " fill="#41403F" transform="translate(230,346)"/>
<path d="M0 0 C0.66 0.33 1.32 0.66 2 1 C-2.625 6.875 -2.625 6.875 -6 8 C-4.55746343 4.63408134 -2.66735273 2.48952921 0 0 Z " fill="#302F2F" transform="translate(352,345)"/>
<path d="M0 0 C-1.28519565 2.86697492 -2.57129254 4.97607712 -5 7 C-5.66 7 -6.32 7 -7 7 C-3.86206897 0 -3.86206897 0 0 0 Z " fill="#282828" transform="translate(385,345)"/>
</svg>
