<?xml version="1.0" encoding="UTF-8"?>
<svg version="1.1" xmlns="http://www.w3.org/2000/svg" width="2760" height="891">
<path d="M0 0 C0.82031674 -0.00085442 1.64063349 -0.00170885 2.48580831 -0.00258917 C5.20796393 -0.00422358 7.93005658 0.0012437 10.65220642 0.00672913 C12.61410012 0.00701146 14.57599393 0.00685235 16.53788757 0.00628662 C21.84504592 0.00600047 27.15218153 0.01186778 32.45933461 0.01886058 C38.01267331 0.02512443 43.56601256 0.02570031 49.11935425 0.02688599 C59.62697703 0.02999037 70.13458937 0.03819172 80.64220756 0.04823548 C92.60832988 0.05942435 104.57445271 0.06491405 116.54057896 0.06993091 C141.14802502 0.08037508 165.75546181 0.09795722 190.36289978 0.12025452 C192.38242181 7.98422467 194.21395694 15.86381538 195.85777283 23.81434631 C196.09038535 24.92953486 196.32299788 26.04472342 196.56265926 27.19370556 C197.33555248 30.90183224 198.10506463 34.61065225 198.87461853 38.31947327 C199.43168187 40.99650884 199.98950404 43.67338614 200.5473175 46.3502655 C201.75016573 52.12433735 202.95138045 57.89874698 204.15150452 63.67338562 C206.08127326 72.9585433 208.01458308 82.24296188 209.94859314 91.52723694 C210.28143753 93.12511724 210.61428163 94.7229976 210.94712543 96.32087803 C211.4519424 98.74433422 211.9567648 101.16778928 212.46160465 103.5912407 C213.49224633 108.53885189 214.52263432 113.48651583 215.55283004 118.4342199 C220.49677999 142.17821609 225.45189277 165.91985895 230.41758728 189.65931702 C230.58263268 190.44835073 230.74767807 191.23738443 230.91772485 192.05032825 C232.91807464 201.61317135 234.91895006 211.17590444 236.92001861 220.73859715 C238.77230319 229.59036042 240.62414769 238.44221574 242.47593689 247.29408264 C242.6428503 248.0919571 242.80976372 248.88983155 242.98173511 249.71188402 C243.82220105 253.72946781 244.66265783 257.74705352 245.50310707 261.76464081 C246.17172163 264.96080567 246.84035096 268.15696744 247.50899315 271.35312653 C254.40438805 304.31372833 261.29358369 337.27562417 268.18046331 370.23800611 C268.61288099 372.30766459 269.04530282 374.3773222 269.47772598 376.44697952 C272.05707796 388.79224276 274.63636731 401.13751909 277.21554565 413.4828186 C281.25908508 432.8373017 285.30303276 452.19169947 289.34727478 471.54603577 C289.49188046 472.23806902 289.63648615 472.93010227 289.78547382 473.64310622 C291.10080411 479.93782481 292.41613877 486.23254249 293.73147964 492.52725887 C295.77563435 502.30979895 297.81976482 512.09234409 299.86387634 521.87489319 C300.00822223 522.56569241 300.15256812 523.25649163 300.30128813 523.96822417 C301.03024294 527.45679952 301.75919734 530.94537495 302.48815155 534.43395042 C303.80056001 540.71477737 305.11297218 546.99560354 306.42538404 553.27642977 C307.15455611 556.76603799 307.88372793 560.25564626 308.61289978 563.74525452 C308.90456645 565.14108785 309.19623311 566.53692118 309.48789978 567.93275452 C310.07123311 570.72442118 310.65456645 573.51608785 311.23789978 576.30775452 C311.38227431 576.99868975 311.52664884 577.68962499 311.67539835 578.40149766 C311.96706979 579.79735384 312.25874122 581.19321002 312.55041265 582.58906621 C313.27950626 586.07829998 314.00859994 589.56753374 314.73769379 593.05676746 C316.05106633 599.34219159 317.36443831 605.62761583 318.67780733 611.9130407 C319.40812421 615.40813744 320.13844156 618.90323409 320.86875916 622.39833069 C321.01331637 623.09014132 321.15787359 623.78195195 321.30681133 624.49472654 C323.33106394 634.18223179 325.35534238 643.86973165 327.37963772 653.55722797 C328.6761477 659.76182932 329.97264987 665.96643231 331.26914978 672.17103577 C331.41201982 672.85476202 331.55488987 673.53848828 331.70208931 674.24293351 C336.04305936 695.01732097 340.38361435 715.79179511 344.72392178 736.56632102 C345.86910044 742.04761162 347.01430617 747.52889657 348.15953064 753.01017761 C348.31949933 753.7758209 348.47946802 754.54146419 348.64428425 755.33030879 C349.44447306 759.16017277 350.2446656 762.99003597 351.04486084 766.81989861 C352.74629252 774.96325055 354.44763353 783.10662143 356.14885473 791.25001734 C357.3040937 796.77987162 358.45943857 802.30970377 359.61486292 807.83951932 C360.27880851 811.01715489 360.9426917 814.19480347 361.60647583 817.37247276 C362.0980012 819.72548214 362.58963329 822.07846922 363.08138275 824.43143177 C363.54064246 826.62973505 363.99943627 828.82813573 364.45771027 831.02664471 C365.48850963 835.9665621 366.52835335 840.9041051 367.59361267 845.8367157 C367.87752239 847.15878635 367.87752239 847.15878635 368.16716766 848.5075655 C368.51550109 850.12640211 368.86706248 851.74454929 369.22263336 853.36181164 C369.94504565 856.72728189 370.36289978 859.65688446 370.36289978 863.12025452 C302.05289978 863.12025452 233.74289978 863.12025452 163.36289978 863.12025452 C161.38322475 855.20155438 159.49376266 847.32135754 157.81919861 839.3407135 C157.58467484 838.23187302 157.35015106 837.12303253 157.10852051 835.98059082 C156.34335709 832.35965769 155.58149088 828.73804088 154.81993103 825.11634827 C154.28624313 822.58475457 153.75244313 820.05318451 153.21853638 817.52163696 C152.1050637 812.23931681 150.99325869 806.95664954 149.88267517 801.67372131 C148.59923322 795.56871964 147.31189583 789.46454849 146.02267438 783.36076492 C144.77857082 777.46986717 143.53783099 771.57826666 142.29845238 765.68637276 C141.77188201 763.18504829 141.24436932 760.683922 140.71590614 758.18299675 C139.98051897 754.70101332 139.24896258 751.21824679 138.51841736 747.73524475 C138.29871277 746.69889893 138.07900818 745.6625531 137.85264587 744.59480286 C137.65504166 743.64880722 137.45743744 742.70281158 137.25384521 741.72814941 C137.08075742 740.90582541 136.90766962 740.08350142 136.72933674 739.23625851 C136.36289978 737.12025452 136.36289978 737.12025452 136.36289978 734.12025452 C42.31289978 734.12025452 -51.73710022 734.12025452 -148.63710022 734.12025452 C-149.62710022 737.42025452 -150.61710022 740.72025452 -151.63710022 744.12025452 C-152.32883006 746.17284305 -153.03791589 748.21974454 -153.7716217 750.25770569 C-154.36516701 751.91228035 -154.36516701 751.91228035 -154.97070312 753.60028076 C-155.60801109 755.3639373 -155.60801109 755.3639373 -156.25819397 757.16322327 C-156.72186279 758.45199388 -157.1853221 759.74083989 -157.64859009 761.02975464 C-158.6279319 763.75280573 -159.60899228 766.47522892 -160.59144592 769.19715881 C-162.01402941 773.1385232 -163.43221711 777.0814542 -164.84999084 781.02455139 C-174.71284453 808.41400738 -184.68848294 835.761557 -194.63710022 863.12025452 C-272.51710022 863.12025452 -350.39710022 863.12025452 -430.63710022 863.12025452 C-423.75105297 844.75746184 -423.75105297 844.75746184 -420.52772522 837.22572327 C-420.16366074 836.36702133 -419.79959625 835.5083194 -419.42449951 834.62359619 C-418.64936599 832.7961746 -417.87279104 830.9693638 -417.09483337 829.1431427 C-414.98359195 824.18659334 -412.88371532 819.22522397 -410.78163147 814.26478577 C-410.35125076 813.25009216 -409.92087006 812.23539856 -409.47744751 811.18995667 C-405.14491752 800.9715767 -400.85538614 790.73539717 -396.57460022 780.49525452 C-395.82949905 778.71359092 -395.08438182 776.93193403 -394.33924866 775.15028381 C-392.84954753 771.58798242 -391.36018106 768.02554132 -389.87098694 764.46302795 C-386.50465208 756.41070342 -383.13368459 748.36031806 -379.7631073 740.30976868 C-377.88758575 735.83000842 -376.0123577 731.35012531 -374.13710022 726.87025452 C-373.38710163 725.07858726 -372.63710163 723.28692059 -371.88710022 721.49525452 C-371.51585022 720.60837952 -371.14460022 719.72150452 -370.76210022 718.80775452 C-331.38710022 624.74525452 -331.38710022 624.74525452 -330.26208496 622.057724 C-329.51213019 620.26616142 -328.76218105 618.47459648 -328.01223755 616.68302917 C-326.13659181 612.20225064 -324.26084798 607.72151322 -322.38490295 603.24085999 C-319.01752014 595.19767462 -315.6508035 587.15421422 -312.28781128 579.10919189 C-304.21000746 559.78550824 -296.10560651 540.47357524 -287.94960022 521.18275452 C-281.37108915 505.62281707 -274.83800864 490.04494107 -268.35112 474.4466095 C-268.04846222 473.71887329 -267.74580444 472.99113708 -267.43397522 472.24134827 C-267.12978668 471.50990601 -266.82559814 470.77846375 -266.51219177 470.02485657 C-262.63102908 460.69634361 -258.72748745 451.37719389 -254.82460022 442.05775452 C-254.4479422 441.15829102 -254.07128418 440.25882751 -253.68321228 439.33210754 C-251.76746319 434.75734756 -249.85151048 430.1826729 -247.93544006 425.60804749 C-244.54208945 417.506115 -241.15064691 409.40338381 -237.75907898 401.30070496 C-235.88516598 396.82385469 -234.01112664 392.34705731 -232.13710022 387.87025452 C-231.38709962 386.0785881 -230.63709962 384.28692144 -229.88710022 382.49525452 C-189.38710024 285.74525457 -189.38710024 285.74525457 -188.26208496 283.057724 C-187.51213019 281.26616142 -186.76218105 279.47459648 -186.01223755 277.68302917 C-184.13659181 273.20225064 -182.26084798 268.72151322 -180.38490295 264.24085999 C-177.01752014 256.19767462 -173.6508035 248.15421422 -170.28781128 240.10919189 C-162.21000746 220.78550824 -154.10560651 201.47357524 -145.94960022 182.18275452 C-140.29176842 168.8004697 -134.65500808 155.41002272 -129.07460022 141.99525452 C-128.63050812 140.92788055 -128.63050812 140.92788055 -128.17744446 139.83894348 C-126.96767561 136.93116972 -125.75801395 134.02335138 -124.54844666 131.11549377 C-117.92249257 115.18902718 -111.27213238 99.27287937 -104.58363342 83.37257385 C-103.72522046 81.32994069 -102.86912182 79.2863597 -102.01405334 77.24232483 C-94.31613439 58.88453045 -86.81917364 43.28226843 -72.63710022 29.12025452 C-71.74958069 28.12638733 -71.74958069 28.12638733 -70.84413147 27.11244202 C-53.68895278 8.14913396 -24.76513554 -0.09642901 0 0 Z M31.36289978 237.12025452 C31.14644302 237.71808746 30.92998627 238.31592041 30.70697021 238.93186951 C30.03707408 240.78205883 29.3671776 242.63224802 28.69728088 244.48243713 C27.88760638 246.71868298 27.07793444 248.95492977 26.26826477 251.19117737 C24.19150066 256.92703442 22.11471515 262.66288373 20.03783512 268.39869881 C18.81544652 271.77462886 17.59307513 275.15056514 16.37071228 278.52650452 C16.12242613 279.21222408 15.87413998 279.89794365 15.61833 280.6044426 C12.47884771 289.2751901 9.3399672 297.94615508 6.2019043 306.61741638 C-2.37997215 330.33126108 -10.96558912 354.04365804 -19.5912323 377.74162292 C-25.37469472 393.63209989 -31.13312826 409.53157791 -36.88710022 425.43275452 C-43.47566619 443.63955536 -50.07422341 461.84266468 -56.69252014 480.03868103 C-57.93689241 483.46031206 -59.18060672 486.88218167 -60.42420959 490.30409241 C-64.02586338 500.21171907 -67.63264866 510.1173539 -71.26348877 520.014328 C-72.78315052 524.1574692 -74.29952864 528.30180858 -75.81565857 532.44624329 C-76.52369223 534.37849818 -77.23347953 536.31011149 -77.94511414 538.24104309 C-78.91439945 540.87112046 -79.87793919 543.50323487 -80.84022522 546.13587952 C-81.26983803 547.29408707 -81.26983803 547.29408707 -81.70812988 548.47569275 C-82.80482189 551.49063275 -83.63710022 553.88519914 -83.63710022 557.12025452 C-23.24710022 557.12025452 37.14289978 557.12025452 99.36289978 557.12025452 C96.45152059 541.98108272 93.54065073 526.86343953 90.37019348 511.77955627 C90.01534693 510.08930077 90.01534693 510.08930077 89.65333176 508.36489868 C89.40795795 507.19619736 89.16258415 506.02749603 88.90977478 504.82337952 C88.37890863 502.28659598 87.84824518 499.74977001 87.31776428 497.21290588 C86.03277282 491.06947137 84.74563963 484.92648774 83.45759666 478.78369236 C80.83044807 466.25455715 78.20653157 453.7247445 75.58272934 441.19490814 C74.92773433 438.06704712 74.27259327 434.93921674 73.6173439 431.811409 C68.71178289 408.39359972 63.83446924 384.97002554 58.97414351 361.54278779 C57.63858699 355.10576496 56.30164391 348.66903139 54.96372986 342.23249817 C54.68265939 340.88028298 54.68265939 340.88028298 54.39591074 339.5007503 C53.64319467 335.87966343 52.89041996 332.25858877 52.13747311 328.63754988 C49.91070603 317.92866427 47.68830688 307.21889523 45.47304881 296.50762272 C44.0773542 289.76119518 42.67617728 283.01592093 41.27073324 276.27151775 C40.45433311 272.35283523 39.64054688 268.43365367 38.83336258 264.51306152 C38.0916751 260.91076849 37.34309805 257.30998071 36.58891916 253.7102828 C36.18575792 251.77676498 35.79014405 249.84167827 35.39474106 247.90655899 C35.03490568 246.19920137 35.03490568 246.19920137 34.6678009 244.45735168 C34.46265806 243.46809063 34.25751522 242.47882957 34.04615593 241.45959091 C33.51794925 238.95496761 33.51794925 238.95496761 31.36289978 237.12025452 Z " fill="#1A1F71" transform="translate(2389.6371002197266,14.879745483398438)"/>
<path d="M0 0 C0.65204848 -0.00175304 1.30409697 -0.00350607 1.97590449 -0.00531223 C4.1881389 -0.01001026 6.40030868 -0.00749703 8.61254597 -0.00507832 C10.20385442 -0.00694442 11.79516241 -0.00924431 13.38646966 -0.01194364 C17.78099755 -0.01809365 22.17550651 -0.01792429 26.57003772 -0.01674926 C31.3017598 -0.01654604 36.03347567 -0.02205673 40.76519489 -0.02680683 C50.04689214 -0.03513325 59.32858303 -0.03786264 68.6102837 -0.03841921 C76.15781516 -0.03889377 83.70534453 -0.04094551 91.25287533 -0.04411983 C112.64700999 -0.0529346 134.04113962 -0.05753834 155.43527611 -0.05678936 C156.58998687 -0.0567494 157.74469762 -0.05670945 158.9343996 -0.05666828 C160.66858063 -0.05660696 160.66858063 -0.05660696 162.43779562 -0.0565444 C181.14887689 -0.05613849 199.85993798 -0.06569203 218.57101341 -0.07980665 C237.7790649 -0.09418174 256.98710655 -0.10107609 276.19516355 -0.10021287 C286.9803994 -0.09988112 297.76561414 -0.10261812 308.55084515 -0.11339092 C317.74087001 -0.12251119 326.93086422 -0.12465892 336.12089165 -0.1178815 C340.80709607 -0.11462299 345.49324172 -0.11453519 350.1794405 -0.12323475 C354.47746786 -0.13113119 358.77539018 -0.12963637 363.07341508 -0.12095062 C364.62073083 -0.11942243 366.16805455 -0.12120582 367.7153609 -0.12681069 C380.08576596 -0.16861867 392.32944586 0.65035214 404.23151875 4.25363445 C404.93429951 4.46536297 405.63708027 4.67709148 406.36115742 4.89523602 C419.3091754 9.00645217 430.38740043 15.53293731 440.85651875 24.12863445 C441.55905781 24.66746258 442.26159687 25.2062907 442.985425 25.76144695 C467.05635764 45.11544936 475.42197467 76.17475199 480.78791523 105.1066618 C481.05696831 106.53759757 481.32644777 107.96845322 481.59630966 109.39923668 C482.32572218 113.27300793 483.04925272 117.14785657 483.77172899 121.02292657 C484.55181553 125.20095598 485.33757611 129.37791858 486.12266254 133.5550108 C487.47604668 140.75978051 488.82604194 147.96517823 490.17368793 155.17102337 C492.14046891 165.68710648 494.11278564 176.20214561 496.08663881 186.71690333 C497.00561216 191.61230443 497.92439803 196.50774071 498.84313679 201.40318584 C499.11755583 202.86540354 499.11755583 202.86540354 499.39751869 204.35716099 C500.7033878 211.31598199 502.00826532 218.2749885 503.31264973 225.23408794 C507.97463266 250.10605659 512.6467937 274.97607745 517.33308125 299.8434782 C517.63219035 301.43076981 517.93129885 303.01806153 518.23040676 304.60535336 C519.56185954 311.67086895 520.89349936 318.73634929 522.22527295 325.80180442 C525.30846023 342.1591296 528.38970616 358.51682026 531.4698 374.8747282 C531.6162794 375.65263761 531.7627588 376.43054702 531.91367698 377.23202944 C536.75749759 402.95668927 541.59145093 428.68319601 546.42100048 454.41053867 C547.33453429 459.27699548 548.24817463 464.14343227 549.16186088 469.00986046 C550.06263211 473.80750295 550.96336435 478.60515277 551.8640871 483.40280437 C552.12951657 484.81659121 552.12951657 484.81659121 552.40030825 486.25893939 C554.50373322 497.46287992 556.60627067 508.66698632 558.70746475 519.87134546 C560.01263624 526.83075858 561.31861743 533.79001942 562.62522167 540.74916369 C563.52744807 545.55479951 564.42866634 550.36062285 565.32909721 555.1665954 C565.87682073 558.08863378 566.42553977 561.01048453 566.97455776 563.93227994 C567.34623823 565.91193831 567.71671983 567.89182164 568.08716393 569.87171173 C568.41750964 571.62804696 568.41750964 571.62804696 568.754529 573.4198637 C569.03955469 574.93945596 569.03955469 574.93945596 569.33033848 576.48974705 C569.77606599 578.72514961 570.27820763 580.92444663 570.85651875 583.12863445 C589.50470499 536.11741403 608.12940141 489.09696282 626.72025776 442.06303692 C630.2437063 433.14889657 633.76783124 424.23502368 637.29200459 415.32116985 C639.06353626 410.84033538 640.83502538 406.35948408 642.60651875 401.87863445 C643.31485187 400.08696771 644.02318521 398.29530104 644.73151875 396.50363445 C645.08214375 395.61675945 645.43276875 394.72988445 645.79401875 393.81613445 C699.98151833 256.75363551 699.98151833 256.75363551 701.04404926 254.06605816 C701.75228169 252.27464613 702.4605133 250.48323378 703.16874409 248.6918211 C704.94111458 244.20875584 706.71349936 239.72569622 708.48591328 235.24264812 C711.65508261 227.22668228 714.82415981 219.2106801 717.99268818 211.19446087 C726.17694786 190.4887195 734.36643416 169.78505723 742.56196308 149.08377361 C747.85392938 135.71647388 753.14365537 122.34829246 758.42905903 108.97839642 C759.47959216 106.32100788 760.53023298 103.66366194 761.58088398 101.00632 C764.74259999 93.00909797 767.90320933 85.01144271 771.06037617 77.01242352 C778.62401341 57.84960367 786.20983233 38.69598986 793.85651875 19.56613445 C794.38126286 18.25233303 794.38126286 18.25233303 794.91660786 16.91199017 C795.89557983 14.46166869 796.87579857 12.01185041 797.85651875 9.5622282 C798.14731815 8.83424023 798.43811756 8.10625225 798.73772907 7.35620403 C800.741102 2.35946794 800.741102 2.35946794 801.85651875 0.12863445 C879.40651875 0.12863445 956.95651875 0.12863445 1036.85651875 0.12863445 C1035.92791681 4.77164411 1034.49539784 8.74951753 1032.672925 13.07394695 C1032.3462685 13.85924786 1032.01961201 14.64454876 1031.68305683 15.45364666 C1030.59945105 18.05550525 1029.5092722 20.65455521 1028.41901875 23.25363445 C1027.65032549 25.09543441 1026.88202194 26.93739705 1026.1140871 28.77951336 C1024.09995766 33.60759073 1022.08014384 38.43326808 1020.05866718 43.25827312 C1018.52530289 46.91947621 1016.99462502 50.58179889 1015.46406269 54.244174 C1011.7323564 63.17324683 1007.99390742 72.09948078 1004.25239277 81.02444744 C1001.62739252 87.28689959 999.00649453 93.55105622 996.38776875 99.81613445 C988.78687059 117.99751943 981.15764891 136.16637572 973.48151875 154.31613445 C966.87278013 169.94284583 960.3130146 185.58927337 953.79401875 201.25363445 C953.37703724 202.25555828 952.96005573 203.25748211 952.53043842 204.28976727 C950.85938134 208.3051893 949.1883881 212.32063789 947.51748371 216.33612347 C943.28707474 226.50062313 939.04436458 236.65995647 934.79401875 246.81613445 C934.24374516 248.13108395 934.24374516 248.13108395 933.68235493 249.47259808 C927.58572814 264.03678996 921.444023 278.58172016 915.29426289 293.12353802 C909.08285883 307.81507644 902.92261016 322.52736817 896.79401875 337.25363445 C896.37703724 338.25555828 895.96005573 339.25748211 895.53043842 340.28976727 C893.85938134 344.3051893 892.1883881 348.32063789 890.51748371 352.33612347 C886.28707474 362.50062313 882.04436458 372.65995647 877.79401875 382.81613445 C877.24374516 384.13108395 877.24374516 384.13108395 876.68235493 385.47259808 C870.58543976 400.03747888 864.44398911 414.58333379 858.29325581 429.12555218 C851.6751705 444.77657856 845.12625436 460.45565924 838.60184956 476.14593792 C832.46166117 490.90968907 826.27380703 505.65247432 820.04401875 520.37863445 C813.81425058 535.10567148 807.62170779 549.84718838 801.48151875 564.61178875 C800.87215616 566.07704456 800.26278108 567.54229518 799.65339375 569.0075407 C799.19712605 570.10466633 799.19712605 570.10466633 798.73164082 571.22395611 C792.94800797 585.12514214 787.12108645 599.0083022 781.30399799 612.89551067 C778.66014225 619.20784829 776.01934961 625.5214611 773.37995625 631.8356657 C765.78137106 650.01041671 758.15491734 668.17283436 750.48151875 686.31613445 C743.87278013 701.94284583 737.3130146 717.58927337 730.79401875 733.25363445 C730.37703724 734.25555828 729.96005573 735.25748211 729.53043842 736.28976727 C727.85938134 740.3051893 726.1883881 744.32063789 724.51748371 748.33612347 C720.28707472 758.5006232 716.0443408 768.65994647 711.79401875 778.81613445 C711.43149006 779.68246502 711.06896137 780.54879559 710.69544697 781.44137859 C703.9381385 797.58427664 697.13439339 813.70750929 690.31135273 829.82272625 C689.56196835 831.59391707 688.81269797 833.36515613 688.06355 835.13644695 C687.52772549 836.40265629 687.52772549 836.40265629 686.98107624 837.69444561 C684.26419174 844.1285749 681.59953604 850.58338991 678.98440266 857.05957317 C676.96461764 862.02053556 676.96461764 862.02053556 675.85651875 863.12863445 C672.80987184 863.22665944 669.78588114 863.2585443 666.73882771 863.24888897 C665.77017137 863.24974339 664.80151504 863.25059782 663.80350548 863.25147814 C660.53136331 863.25313588 657.25927149 863.24760676 653.98713398 863.24215984 C651.65204081 863.24187801 649.31694756 863.24203563 646.98185444 863.24260235 C640.62053858 863.24289047 634.2592414 863.23699139 627.89792991 863.23002839 C621.93012713 863.22442789 615.96232512 863.22340657 609.99452008 863.22237652 C598.1709282 863.22018569 586.34734321 863.21352477 574.52375507 863.20407391 C563.03547417 863.19490058 551.54719514 863.18781936 540.05891132 863.18356609 C539.3512561 863.18330337 538.64360087 863.18304065 537.91450154 863.18276996 C534.3645473 863.18146496 530.81459304 863.18020125 527.26463878 863.17895806 C497.795261 863.16858449 468.32588994 863.15089121 438.85651875 863.12863445 C434.36167795 846.33627916 429.89127035 829.53919577 425.56355 812.7028532 C425.09506659 810.88450761 424.62645461 809.06619513 424.15772724 807.24791241 C423.17084509 803.41881415 422.18465716 799.58953816 421.19907856 795.76010418 C418.81264011 786.48805517 416.42221433 777.21703371 414.03190136 767.94598293 C413.48735092 765.8338645 412.94284239 763.72173527 412.39837551 761.6095953 C407.30190678 741.83956051 402.18106492 722.07590969 397.05130863 702.31449032 C388.85123225 670.72422678 380.69470374 639.1228833 372.55516529 607.51697063 C365.15894795 578.79789267 357.74378833 550.08386808 350.29401875 521.37863445 C342.83432952 492.63434177 335.39888595 463.88387794 327.98151875 435.12863445 C327.73067524 434.15619793 327.47983173 433.18376141 327.22138691 432.18185711 C326.46108746 429.23442998 325.70079444 426.28700118 324.94050312 423.33957195 C324.18022313 420.39218853 323.41994144 417.44480554 322.65965366 414.49742413 C322.15267718 412.53204272 321.64570646 410.56665982 321.13874149 408.60127544 C314.58526375 383.19547207 308.02066165 357.79254448 301.45319843 332.3903532 C300.50558638 328.72499402 299.55799973 325.05962828 298.610425 321.39425945 C298.37598053 320.48741909 298.14153606 319.58057873 297.89998722 318.64625835 C294.43720272 305.25148928 290.97966637 291.85537288 287.52490902 278.45853138 C282.04926741 257.22546922 276.56315899 235.99514441 271.05952168 214.76932049 C270.28813126 211.79418431 269.51733292 208.81889613 268.74726582 205.84341717 C266.89090891 198.67135416 265.02736334 191.50126096 263.14710712 184.33542156 C262.63596572 182.38335309 262.12744312 180.43059619 261.62208271 178.47702312 C259.16116087 168.97339511 256.46366487 159.61404682 253.24714375 150.3356657 C252.82531818 149.11510731 252.82531818 149.11510731 252.39497089 147.86989117 C241.95525887 118.54648133 218.17622391 104.40705926 191.39362812 91.45382977 C173.58872313 83.05501019 155.38660937 75.76861965 136.85651875 69.12863445 C135.76718037 68.73641705 135.76718037 68.73641705 134.65583515 68.33627605 C88.1028354 51.59304949 40.04092618 37.64843055 -8.41655254 27.58194256 C-10.14348125 27.12863445 -10.14348125 27.12863445 -11.14348125 26.12863445 C-10.91128509 0.00656555 -10.91128509 0.00656555 0 0 Z " fill="#1A1F71" transform="translate(11.143481254577637,14.871365547180176)"/>
<path d="M0 0 C1.09205372 -0.00424107 1.09205372 -0.00424107 2.20616913 -0.00856781 C6.07739094 -0.02344644 9.94857674 -0.0327409 13.81982422 -0.03710938 C16.93550657 -0.04144329 20.05090404 -0.05515116 23.16650391 -0.078125 C51.88876648 -0.28525045 80.2772057 1.30606697 108.671875 5.890625 C109.46296661 6.01529144 110.25405823 6.13995789 111.06912231 6.2684021 C151.57439055 12.68397686 190.5771531 23.89040884 229.296875 37.203125 C228.65820724 43.95507533 227.51650577 50.45217559 226.07885742 57.07641602 C225.85414764 58.12894562 225.62943787 59.18147522 225.3979187 60.26589966 C224.65358514 63.74718949 223.90297996 67.22709543 223.15234375 70.70703125 C222.62162809 73.183099 222.0913068 75.65925131 221.56135559 78.13548279 C220.30043227 84.02259966 219.03558021 89.90885897 217.7687934 95.79471582 C216.23849842 102.90593865 214.71395136 110.01839183 213.18945312 117.13085938 C211.54763727 124.78919956 209.90488899 132.44733565 208.25827026 140.10464478 C205.58210621 152.54985908 202.91176286 164.99622514 200.26035583 177.44673407 C199.28663342 182.01781715 198.31113252 186.5885212 197.33605385 191.15931511 C196.80503733 193.65140297 196.27498573 196.14369665 195.74593163 198.63620186 C195.01832413 202.0638926 194.28746733 205.49087545 193.5559082 208.91772461 C193.34048433 209.9371282 193.12506046 210.95653179 192.9031086 212.0068264 C192.70497 212.93200884 192.5068314 213.85719128 192.3026886 214.81040955 C192.04591575 216.01803656 192.04591575 216.01803656 191.78395557 217.25006008 C191.296875 219.203125 191.296875 219.203125 190.296875 221.203125 C186.59177801 220.57802298 183.40674632 219.53009935 179.95703125 218.05078125 C178.91039307 217.60911621 177.86375488 217.16745117 176.78540039 216.71240234 C175.65481201 216.23496582 174.52422363 215.7575293 173.359375 215.265625 C138.02777778 200.68493618 101.16125576 190.52331014 63.296875 185.203125 C62.18473633 185.04086426 61.07259766 184.87860352 59.92675781 184.71142578 C42.77735728 182.30514586 25.71366963 181.89850354 8.421875 181.828125 C6.89342957 181.81620621 6.89342957 181.81620621 5.33410645 181.80404663 C-31.13596146 181.58537911 -73.46893304 186.66465991 -101.703125 212.203125 C-102.54488281 212.94046875 -103.38664062 213.6778125 -104.25390625 214.4375 C-115.64747134 225.01847395 -122.72592386 238.74548148 -123.6875 254.37109375 C-123.77650757 270.50371492 -115.6170445 284.74737971 -104.703125 296.203125 C-102.16361156 298.72165073 -99.50354408 300.98026203 -96.703125 303.203125 C-95.80464844 303.93789063 -94.90617187 304.67265625 -93.98046875 305.4296875 C-73.64698004 321.62450152 -50.25751281 333.87068474 -27.2434082 345.76269531 C-19.92281956 349.54786042 -12.67876347 353.45690104 -5.45800781 357.42871094 C-0.17334181 360.32903698 5.13292971 363.18321971 10.46875 365.98828125 C39.58329353 381.30799981 68.41977844 397.75855993 94.296875 418.203125 C95.10125 418.82832031 95.905625 419.45351563 96.734375 420.09765625 C99.28184448 422.10215547 101.79377819 424.14347579 104.296875 426.203125 C104.79880371 426.61336914 105.30073242 427.02361328 105.81787109 427.44628906 C119.86697371 438.98616845 133.33318957 451.65280642 144.296875 466.203125 C144.93351074 467.03312012 144.93351074 467.03312012 145.58300781 467.87988281 C183.75552366 517.73951903 193.44750429 576.08672355 185.79736328 637.58056641 C184.50735533 646.91770689 182.6064548 656.06831205 180.296875 665.203125 C179.9258667 666.67289795 179.9258667 666.67289795 179.54736328 668.17236328 C168.21190208 711.94161743 145.55611595 750.7103724 114.296875 783.203125 C113.7488623 783.77305176 113.20084961 784.34297852 112.63623047 784.93017578 C105.24857969 792.56524997 97.71239009 799.69425005 89.296875 806.203125 C88.067216 807.18427912 86.83808558 808.16609593 85.609375 809.1484375 C23.68427132 858.1456072 -56.06082059 881.40238732 -133.703125 889.203125 C-134.5148114 889.28926056 -135.3264978 889.37539612 -136.16278076 889.46414185 C-154.86882619 891.40389633 -173.52521904 891.54626729 -192.30908203 891.51879883 C-195.71709491 891.51419504 -199.12474848 891.5210041 -202.53271484 891.53930664 C-226.74015247 891.66790857 -250.61517054 890.62745435 -274.703125 888.203125 C-275.74621826 888.09843903 -276.78931152 887.99375305 -277.86401367 887.88589478 C-283.28103625 887.32699657 -288.68093202 886.67760513 -294.078125 885.953125 C-294.85888397 885.85052368 -295.63964294 885.74792236 -296.44406128 885.64221191 C-413.03318622 870.23499054 -413.03318622 870.23499054 -448.703125 846.203125 C-448.04791946 836.90148936 -446.08909613 827.95615157 -444.1171875 818.86743164 C-443.74381734 817.12710383 -443.37092585 815.38667328 -442.99847412 813.64614868 C-441.99107145 808.94519714 -440.97689263 804.24573134 -439.96135712 799.54653096 C-438.89839272 794.62268088 -437.84141053 789.69754672 -436.78369141 784.77256775 C-435.00854438 776.51124264 -433.2293059 768.25080758 -431.44726562 759.9909668 C-429.15874824 749.38348483 -426.87691013 738.77457773 -424.59719849 728.16520023 C-422.63657002 719.04098226 -420.67301126 709.91739531 -418.70891571 700.79392314 C-418.07758804 697.86078652 -417.44664106 694.9275682 -416.81573486 691.9943409 C-415.82591194 687.39338494 -414.83426783 682.7928251 -413.84119415 678.19256973 C-413.47658965 676.50237501 -413.11255954 674.81205627 -412.74913788 673.12160683 C-412.25409508 670.8194614 -411.75696796 668.51777601 -411.25927734 666.21620178 C-410.98127289 664.92669648 -410.70326843 663.63719118 -410.4168396 662.30860996 C-409.703125 659.203125 -409.703125 659.203125 -408.703125 656.203125 C-402.40646333 658.12362075 -396.64539601 660.57663244 -390.765625 663.515625 C-329.73622256 693.10850765 -264.56360145 708.6678201 -196.703125 710.203125 C-195.93355469 710.22503906 -195.16398437 710.24695313 -194.37109375 710.26953125 C-150.0360364 711.45074947 -100.69097527 704.01658668 -66.703125 673.203125 C-54.48177365 661.61601544 -47.78024717 645.69538211 -47.23486328 629.03833008 C-47.13070068 619.5282844 -47.78679479 611.0056603 -51.703125 602.203125 C-52.10402344 601.28917969 -52.50492188 600.37523437 -52.91796875 599.43359375 C-65.87904336 573.17332954 -94.17703 556.98252642 -118.703125 543.203125 C-119.61835937 542.68766113 -120.53359375 542.17219727 -121.4765625 541.64111328 C-135.67927629 533.70181617 -150.19516758 526.44280367 -164.76998901 519.21899414 C-181.0023069 511.17289355 -197.02613197 503.08450108 -212.46191406 493.57568359 C-214.55547483 492.29354867 -216.66522581 491.04756293 -218.7890625 489.81640625 C-233.41103502 481.31132978 -247.35219031 471.58053313 -260.703125 461.203125 C-261.51394531 460.5740625 -262.32476563 459.945 -263.16015625 459.296875 C-265.69968023 457.29479471 -268.20536884 455.25708014 -270.703125 453.203125 C-271.71503906 452.378125 -272.72695312 451.553125 -273.76953125 450.703125 C-287.9667415 438.94301519 -301.52481415 425.89142546 -312.703125 411.203125 C-313.47140625 410.26339844 -314.2396875 409.32367188 -315.03125 408.35546875 C-339.88605435 377.44328284 -356.67900078 337.17583999 -356.90625 297.19921875 C-356.91330963 296.36685699 -356.92036926 295.53449524 -356.92764282 294.6769104 C-357.04539504 276.6938677 -357.11319762 258.93060045 -353.703125 241.203125 C-353.50444824 240.16768555 -353.30577148 239.13224609 -353.10107422 238.06542969 C-345.89386416 201.8404263 -331.4650419 168.05459167 -309.703125 138.203125 C-309.2803125 137.62191895 -308.8575 137.04071289 -308.421875 136.44189453 C-303.09713026 129.18484985 -297.3642525 122.44990496 -291.20703125 115.89453125 C-289.21293992 113.75111639 -287.32149968 111.57877583 -285.453125 109.328125 C-275.84677325 98.30030832 -264.35738889 88.96242187 -252.703125 80.203125 C-252.12127441 79.75904297 -251.53942383 79.31496094 -250.93994141 78.85742188 C-180.85657093 25.40563315 -87.37916387 0.2356543 0 0 Z " fill="#1A1F71" transform="translate(1783.703125,-0.203125)"/>
<path d="M0 0 C73.92 0 147.84 0 224 0 C222.65811582 8.72224716 221.19698071 17.26349545 219.33081055 25.8671875 C219.06722528 27.0972606 218.80364 28.3273337 218.5320673 29.59468174 C217.8074603 32.97583028 217.07822026 36.35596456 216.34819126 39.73594594 C215.55703325 43.40318443 214.77038493 47.07139043 213.98321533 50.73948669 C212.61303813 57.12157623 211.24023745 63.50309672 209.86569214 69.88424683 C207.64606908 80.18896895 205.43208152 90.49489794 203.21899414 100.80102539 C202.45233331 104.37105163 201.68564861 107.94107274 200.91896057 111.51109314 C200.72718064 112.4041274 200.53540071 113.29716166 200.33780926 114.21725756 C198.9556133 120.6532633 197.57271415 127.08911773 196.18955994 133.5249176 C190.7748396 158.72086872 185.37353153 183.91966264 179.984375 209.12109375 C179.79935433 209.98630221 179.61433365 210.85151067 179.42370629 211.74293756 C177.16534173 222.30393807 174.90760631 232.86507303 172.65006536 243.42624962 C170.53305404 253.32984083 168.41535079 263.23328406 166.29760742 273.13671875 C165.90717521 274.96255044 165.51674317 276.78838218 165.1263113 278.61421394 C164.53821642 281.36440402 163.95012101 284.11459399 163.36202306 286.86478341 C161.98076533 293.32413927 160.59958132 299.78351089 159.21842957 306.2428894 C153.50230034 332.97598761 147.78474882 359.70878141 142.06640625 386.44140625 C141.64841327 388.39548682 141.23042036 390.3495674 140.81242752 392.30364799 C137.03379482 409.9683961 133.25506238 427.63312287 129.47619629 445.29782104 C126.95934129 457.06312 124.44253539 468.82842946 121.92578125 480.59375 C121.61538823 482.04476825 121.61538823 482.04476825 121.29872465 483.52509999 C115.61174939 510.11052262 109.92663397 536.69634212 104.24367231 563.28262299 C100.55869562 580.52183719 96.8732656 597.76095446 93.1875 615 C92.99957398 615.8789743 92.81164796 616.7579486 92.61802721 617.66355848 C83.39618488 660.79594276 74.16256453 703.92578051 64.90625 747.05078125 C64.71454538 747.94394727 64.52284077 748.8371133 64.32532692 749.75734496 C56.2229521 787.50619977 48.1101384 825.25281262 40 863 C-33.92 863 -107.84 863 -184 863 C-182.87500686 851.75006857 -182.87500686 851.75006857 -181.74424744 846.48805237 C-181.36206055 844.690033 -181.36206055 844.690033 -180.97215271 842.85569 C-180.69251175 841.56727959 -180.41287079 840.27886917 -180.12475586 838.95141602 C-179.82359732 837.54476023 -179.5229229 836.13800072 -179.22268677 834.73114777 C-178.40014903 830.88358234 -177.57085927 827.03749957 -176.74044871 823.19162679 C-175.84357162 819.03197101 -174.95311567 814.8709405 -174.06190491 810.71006775 C-172.51193521 803.47767748 -170.95807296 796.24613253 -169.40161133 789.01513672 C-167.11404961 778.38728542 -164.83285347 767.75807537 -162.55339694 757.12848306 C-161.48145281 752.12979905 -160.40928719 747.13116256 -159.33706665 742.13253784 C-159.01472894 740.62981443 -159.01472894 740.62981443 -158.68587935 739.09673297 C-157.13823785 731.88233041 -155.58945875 724.6681726 -154.04013062 717.45413208 C-147.99457577 689.30415173 -141.961892 661.15144622 -135.94140625 632.99609375 C-135.7364424 632.03758868 -135.53147855 631.07908362 -135.32030368 630.09153295 C-133.45758031 621.38053806 -131.59501311 612.66950978 -129.73267651 603.9584322 C-126.8063033 590.27035908 -123.87895682 576.58249439 -120.95092773 562.89477539 C-120.74242443 561.92007762 -120.53392113 560.94537985 -120.31909955 559.94114578 C-119.477727 556.0079655 -118.63634863 552.07478648 -117.79496127 548.14160937 C-115.49859506 537.40693387 -113.2024055 526.67222058 -110.90625 515.9375 C-110.70160562 514.98077239 -110.49696125 514.02404478 -110.28611553 513.03832543 C-105.74248192 491.79645743 -101.19929283 470.55449436 -96.65625 449.3125 C-96.46634892 448.42457622 -96.27644784 447.53665244 -96.08079219 446.62182188 C-92.46292315 429.70567528 -88.84510907 412.78951692 -85.22732544 395.87335205 C-82.94453871 385.19941799 -80.66173443 374.52548769 -78.37890625 363.8515625 C-78.18965238 362.96665902 -78.00039851 362.08175553 -77.80540967 361.17003679 C-72.11217711 334.54996271 -66.41827558 307.93003178 -60.72382981 281.3102172 C-59.42651124 275.24564028 -58.12921561 269.18105845 -56.83194238 263.11647183 C-55.75198279 258.06779927 -54.67201382 253.01912872 -53.59204102 247.97045898 C-53.37836785 246.97157603 -53.16469469 245.97269307 -52.94454658 244.94354093 C-50.17832612 232.0120388 -47.41173057 219.08061697 -44.64479351 206.14926815 C-42.58332564 196.51491574 -40.52206714 186.88051853 -38.4609375 177.24609375 C-38.26010567 176.30734791 -38.05927384 175.36860207 -37.8523562 174.40140939 C-32.51120996 149.43491056 -27.17713462 124.46691655 -21.85336846 99.49670577 C-20.65741075 93.88733072 -19.46103576 88.27804483 -18.26435852 82.66882324 C-18.10058277 81.90113405 -17.93680702 81.13344485 -17.76806837 80.34249234 C-17.11973975 77.30350512 -16.47140634 74.26451893 -15.82302248 71.2255435 C-13.98231843 62.59801832 -12.1432887 53.97014062 -10.30729318 45.34161216 C-9.06623339 39.50971561 -7.82250142 33.67839255 -6.57772446 27.84728813 C-6.0755852 25.49267584 -5.57440661 23.13785845 -5.07425308 20.78282356 C-4.40167092 17.61631845 -3.72580712 14.45053188 -3.04907227 11.28491211 C-2.85358512 10.36045729 -2.65809797 9.43600246 -2.45668697 8.48353386 C-2.27762593 7.64925928 -2.09856489 6.8149847 -1.91407776 5.95542908 C-1.76047067 5.23411269 -1.60686357 4.51279631 -1.44860172 3.76962185 C-1 2 -1 2 0 0 Z " fill="#1A1F71" transform="translate(1143,15)"/>
</svg>
